<?xml version="1.0" encoding="UTF-8" standalone="no"?>
<!DOCTYPE svg PUBLIC "-//W3C//DTD SVG 1.1//EN"
 "http://www.w3.org/Graphics/SVG/1.1/DTD/svg11.dtd">
<!-- Generated by graphviz version 2.40.1 (20161225.0304)
 -->
<!-- Title: mergebranches2 Pages: 1 -->
<svg width="263pt" height="281pt"
 viewBox="0.00 0.00 263.24 280.80" xmlns="http://www.w3.org/2000/svg" xmlns:xlink="http://www.w3.org/1999/xlink">
<g id="graph0" class="graph" transform="scale(1 1) rotate(0) translate(14.4 266.4)">
<title>mergebranches2</title>
<!-- b1 -->
<g id="node1" class="node">
<title>b1</title>
<path fill="#ffffff" stroke="#000000" d="M78.4414,-180C78.4414,-180 48.4414,-180 48.4414,-180 42.4414,-180 36.4414,-174 36.4414,-168 36.4414,-168 36.4414,-156 36.4414,-156 36.4414,-150 42.4414,-144 48.4414,-144 48.4414,-144 78.4414,-144 78.4414,-144 84.4414,-144 90.4414,-150 90.4414,-156 90.4414,-156 90.4414,-168 90.4414,-168 90.4414,-174 84.4414,-180 78.4414,-180"/>
<text text-anchor="middle" x="63.4414" y="-157.8" font-family="Times,serif" font-size="14.00" fill="#000000">b1</text>
</g>
<!-- E -->
<g id="node5" class="node">
<title>E</title>
<path fill="#ffff00" stroke="#000000" d="M150.4414,-180C150.4414,-180 120.4414,-180 120.4414,-180 114.4414,-180 108.4414,-174 108.4414,-168 108.4414,-168 108.4414,-156 108.4414,-156 108.4414,-150 114.4414,-144 120.4414,-144 120.4414,-144 150.4414,-144 150.4414,-144 156.4414,-144 162.4414,-150 162.4414,-156 162.4414,-156 162.4414,-168 162.4414,-168 162.4414,-174 156.4414,-180 150.4414,-180"/>
<text text-anchor="middle" x="135.4414" y="-157.8" font-family="Times,serif" font-size="14.00" fill="#000000">E</text>
</g>
<!-- b1&#45;&gt;E -->
<g id="edge9" class="edge">
<title>b1&#45;&gt;E</title>
<path fill="none" stroke="#000000" d="M90.7227,-162C93.1791,-162 95.6356,-162 98.0921,-162"/>
<polygon fill="#000000" stroke="#000000" points="98.191,-165.5001 108.1909,-162 98.1909,-158.5001 98.191,-165.5001"/>
</g>
<!-- HEAD -->
<g id="node2" class="node">
<title>HEAD</title>
<path fill="#ffffff" stroke="#000000" d="M42.8243,-252C42.8243,-252 12.0585,-252 12.0585,-252 6.0585,-252 .0585,-246 .0585,-240 .0585,-240 .0585,-228 .0585,-228 .0585,-222 6.0585,-216 12.0585,-216 12.0585,-216 42.8243,-216 42.8243,-216 48.8243,-216 54.8243,-222 54.8243,-228 54.8243,-228 54.8243,-240 54.8243,-240 54.8243,-246 48.8243,-252 42.8243,-252"/>
<text text-anchor="middle" x="27.4414" y="-229.8" font-family="Times,serif" font-size="14.00" fill="#000000">HEAD</text>
</g>
<!-- b2 -->
<g id="node3" class="node">
<title>b2</title>
<path fill="#ffffff" stroke="#000000" d="M114.4414,-252C114.4414,-252 84.4414,-252 84.4414,-252 78.4414,-252 72.4414,-246 72.4414,-240 72.4414,-240 72.4414,-228 72.4414,-228 72.4414,-222 78.4414,-216 84.4414,-216 84.4414,-216 114.4414,-216 114.4414,-216 120.4414,-216 126.4414,-222 126.4414,-228 126.4414,-228 126.4414,-240 126.4414,-240 126.4414,-246 120.4414,-252 114.4414,-252"/>
<text text-anchor="middle" x="99.4414" y="-229.8" font-family="Times,serif" font-size="14.00" fill="#000000">b2</text>
</g>
<!-- HEAD&#45;&gt;b2 -->
<g id="edge1" class="edge">
<title>HEAD&#45;&gt;b2</title>
<path fill="none" stroke="#000000" d="M55.0039,-234C57.4449,-234 59.886,-234 62.327,-234"/>
<polygon fill="#000000" stroke="#000000" points="62.3623,-237.5001 72.3623,-234 62.3623,-230.5001 62.3623,-237.5001"/>
</g>
<!-- F -->
<g id="node4" class="node">
<title>F</title>
<path fill="#ffff00" stroke="#000000" d="M186.4414,-252C186.4414,-252 156.4414,-252 156.4414,-252 150.4414,-252 144.4414,-246 144.4414,-240 144.4414,-240 144.4414,-228 144.4414,-228 144.4414,-222 150.4414,-216 156.4414,-216 156.4414,-216 186.4414,-216 186.4414,-216 192.4414,-216 198.4414,-222 198.4414,-228 198.4414,-228 198.4414,-240 198.4414,-240 198.4414,-246 192.4414,-252 186.4414,-252"/>
<text text-anchor="middle" x="171.4414" y="-229.8" font-family="Times,serif" font-size="14.00" fill="#000000">F</text>
</g>
<!-- b2&#45;&gt;F -->
<g id="edge8" class="edge">
<title>b2&#45;&gt;F</title>
<path fill="none" stroke="#ff0000" d="M126.7227,-234C129.1791,-234 131.6356,-234 134.0921,-234"/>
<polygon fill="#ff0000" stroke="#ff0000" points="134.191,-237.5001 144.1909,-234 134.1909,-230.5001 134.191,-237.5001"/>
</g>
<!-- F&#45;&gt;E -->
<g id="edge2" class="edge">
<title>F&#45;&gt;E</title>
<path fill="none" stroke="#ff0000" d="M162.3571,-215.8314C158.38,-207.8771 153.6259,-198.369 149.2276,-189.5723"/>
<polygon fill="#ff0000" stroke="#ff0000" points="152.2507,-187.7923 144.648,-180.4133 145.9897,-190.9228 152.2507,-187.7923"/>
</g>
<!-- C -->
<g id="node6" class="node">
<title>C</title>
<path fill="#ffff00" stroke="#000000" d="M222.4414,-180C222.4414,-180 192.4414,-180 192.4414,-180 186.4414,-180 180.4414,-174 180.4414,-168 180.4414,-168 180.4414,-156 180.4414,-156 180.4414,-150 186.4414,-144 192.4414,-144 192.4414,-144 222.4414,-144 222.4414,-144 228.4414,-144 234.4414,-150 234.4414,-156 234.4414,-156 234.4414,-168 234.4414,-168 234.4414,-174 228.4414,-180 222.4414,-180"/>
<text text-anchor="middle" x="207.4414" y="-157.8" font-family="Times,serif" font-size="14.00" fill="#000000">C</text>
</g>
<!-- F&#45;&gt;C -->
<g id="edge3" class="edge">
<title>F&#45;&gt;C</title>
<path fill="none" stroke="#ff0000" d="M180.5257,-215.8314C184.5029,-207.8771 189.2569,-198.369 193.6553,-189.5723"/>
<polygon fill="#ff0000" stroke="#ff0000" points="196.8931,-190.9228 198.2348,-180.4133 190.6321,-187.7923 196.8931,-190.9228"/>
</g>
<!-- D -->
<g id="node7" class="node">
<title>D</title>
<path fill="#ffff00" stroke="#000000" d="M150.4414,-108C150.4414,-108 120.4414,-108 120.4414,-108 114.4414,-108 108.4414,-102 108.4414,-96 108.4414,-96 108.4414,-84 108.4414,-84 108.4414,-78 114.4414,-72 120.4414,-72 120.4414,-72 150.4414,-72 150.4414,-72 156.4414,-72 162.4414,-78 162.4414,-84 162.4414,-84 162.4414,-96 162.4414,-96 162.4414,-102 156.4414,-108 150.4414,-108"/>
<text text-anchor="middle" x="135.4414" y="-85.8" font-family="Times,serif" font-size="14.00" fill="#000000">D</text>
</g>
<!-- E&#45;&gt;D -->
<g id="edge4" class="edge">
<title>E&#45;&gt;D</title>
<path fill="none" stroke="#000000" d="M135.4414,-143.8314C135.4414,-136.131 135.4414,-126.9743 135.4414,-118.4166"/>
<polygon fill="#000000" stroke="#000000" points="138.9415,-118.4132 135.4414,-108.4133 131.9415,-118.4133 138.9415,-118.4132"/>
</g>
<!-- B -->
<g id="node9" class="node">
<title>B</title>
<path fill="#ffff00" stroke="#000000" d="M222.4414,-108C222.4414,-108 192.4414,-108 192.4414,-108 186.4414,-108 180.4414,-102 180.4414,-96 180.4414,-96 180.4414,-84 180.4414,-84 180.4414,-78 186.4414,-72 192.4414,-72 192.4414,-72 222.4414,-72 222.4414,-72 228.4414,-72 234.4414,-78 234.4414,-84 234.4414,-84 234.4414,-96 234.4414,-96 234.4414,-102 228.4414,-108 222.4414,-108"/>
<text text-anchor="middle" x="207.4414" y="-85.8" font-family="Times,serif" font-size="14.00" fill="#000000">B</text>
</g>
<!-- C&#45;&gt;B -->
<g id="edge6" class="edge">
<title>C&#45;&gt;B</title>
<path fill="none" stroke="#000000" d="M207.4414,-143.8314C207.4414,-136.131 207.4414,-126.9743 207.4414,-118.4166"/>
<polygon fill="#000000" stroke="#000000" points="210.9415,-118.4132 207.4414,-108.4133 203.9415,-118.4133 210.9415,-118.4132"/>
</g>
<!-- A -->
<g id="node8" class="node">
<title>A</title>
<path fill="#ffff00" stroke="#000000" d="M186.4414,-36C186.4414,-36 156.4414,-36 156.4414,-36 150.4414,-36 144.4414,-30 144.4414,-24 144.4414,-24 144.4414,-12 144.4414,-12 144.4414,-6 150.4414,0 156.4414,0 156.4414,0 186.4414,0 186.4414,0 192.4414,0 198.4414,-6 198.4414,-12 198.4414,-12 198.4414,-24 198.4414,-24 198.4414,-30 192.4414,-36 186.4414,-36"/>
<text text-anchor="middle" x="171.4414" y="-13.8" font-family="Times,serif" font-size="14.00" fill="#000000">A</text>
</g>
<!-- D&#45;&gt;A -->
<g id="edge5" class="edge">
<title>D&#45;&gt;A</title>
<path fill="none" stroke="#000000" d="M144.5257,-71.8314C148.5029,-63.8771 153.2569,-54.369 157.6553,-45.5723"/>
<polygon fill="#000000" stroke="#000000" points="160.8931,-46.9228 162.2348,-36.4133 154.6321,-43.7923 160.8931,-46.9228"/>
</g>
<!-- B&#45;&gt;A -->
<g id="edge7" class="edge">
<title>B&#45;&gt;A</title>
<path fill="none" stroke="#000000" d="M198.3571,-71.8314C194.38,-63.8771 189.6259,-54.369 185.2276,-45.5723"/>
<polygon fill="#000000" stroke="#000000" points="188.2507,-43.7923 180.648,-36.4133 181.9897,-46.9228 188.2507,-43.7923"/>
</g>
</g>
</svg>
