<?xml version="1.0" encoding="UTF-8" standalone="no"?>
<!DOCTYPE svg PUBLIC "-//W3C//DTD SVG 1.1//EN"
 "http://www.w3.org/Graphics/SVG/1.1/DTD/svg11.dtd">
<!-- Generated by graphviz version 2.38.0 (20140413.2041)
 -->
<!-- Title: merge_ours_dag Pages: 1 -->
<svg width="383pt" height="332pt"
 viewBox="0.00 0.00 383.44 332.00" xmlns="http://www.w3.org/2000/svg" xmlns:xlink="http://www.w3.org/1999/xlink">
<g id="graph0" class="graph" transform="scale(1 1) rotate(0) translate(4 328)">
<title>merge_ours_dag</title>
<!-- HEAD -->
<g id="node1" class="node"><title>HEAD</title>
<path fill="white" stroke="black" d="M42.8243,-324C42.8243,-324 12.0585,-324 12.0585,-324 6.05847,-324 0.0584689,-318 0.0584689,-312 0.0584689,-312 0.0584689,-300 0.0584689,-300 0.0584689,-294 6.05847,-288 12.0585,-288 12.0585,-288 42.8243,-288 42.8243,-288 48.8243,-288 54.8243,-294 54.8243,-300 54.8243,-300 54.8243,-312 54.8243,-312 54.8243,-318 48.8243,-324 42.8243,-324"/>
<text text-anchor="middle" x="27.4414" y="-301.8" font-family="Times,serif" font-size="14.00">HEAD</text>
</g>
<!-- BR1 -->
<g id="node2" class="node"><title>BR1</title>
<path fill="white" stroke="black" d="M114.441,-324C114.441,-324 84.4414,-324 84.4414,-324 78.4414,-324 72.4414,-318 72.4414,-312 72.4414,-312 72.4414,-300 72.4414,-300 72.4414,-294 78.4414,-288 84.4414,-288 84.4414,-288 114.441,-288 114.441,-288 120.441,-288 126.441,-294 126.441,-300 126.441,-300 126.441,-312 126.441,-312 126.441,-318 120.441,-324 114.441,-324"/>
<text text-anchor="middle" x="99.4414" y="-301.8" font-family="Times,serif" font-size="14.00">BR1</text>
</g>
<!-- HEAD&#45;&gt;BR1 -->
<g id="edge1" class="edge"><title>HEAD&#45;&gt;BR1</title>
<path fill="none" stroke="black" d="M55.0039,-306C57.4449,-306 59.886,-306 62.327,-306"/>
<polygon fill="black" stroke="black" points="62.3623,-309.5 72.3623,-306 62.3623,-302.5 62.3623,-309.5"/>
</g>
<!-- c4 -->
<g id="node7" class="node"><title>c4</title>
<path fill="yellow" stroke="black" d="M186.441,-324C186.441,-324 156.441,-324 156.441,-324 150.441,-324 144.441,-318 144.441,-312 144.441,-312 144.441,-300 144.441,-300 144.441,-294 150.441,-288 156.441,-288 156.441,-288 186.441,-288 186.441,-288 192.441,-288 198.441,-294 198.441,-300 198.441,-300 198.441,-312 198.441,-312 198.441,-318 192.441,-324 186.441,-324"/>
<text text-anchor="middle" x="171.441" y="-301.8" font-family="Times,serif" font-size="14.00">c4</text>
</g>
<!-- BR1&#45;&gt;c4 -->
<g id="edge17" class="edge"><title>BR1&#45;&gt;c4</title>
<path fill="none" stroke="red" d="M126.723,-306C129.179,-306 131.636,-306 134.092,-306"/>
<polygon fill="red" stroke="red" points="134.191,-309.5 144.191,-306 134.191,-302.5 134.191,-309.5"/>
</g>
<!-- BR2 -->
<g id="node3" class="node"><title>BR2</title>
<path fill="white" stroke="black" d="M258.441,-324C258.441,-324 228.441,-324 228.441,-324 222.441,-324 216.441,-318 216.441,-312 216.441,-312 216.441,-300 216.441,-300 216.441,-294 222.441,-288 228.441,-288 228.441,-288 258.441,-288 258.441,-288 264.441,-288 270.441,-294 270.441,-300 270.441,-300 270.441,-312 270.441,-312 270.441,-318 264.441,-324 258.441,-324"/>
<text text-anchor="middle" x="243.441" y="-301.8" font-family="Times,serif" font-size="14.00">BR2</text>
</g>
<!-- c3 -->
<g id="node6" class="node"><title>c3</title>
<path fill="yellow" stroke="black" d="M258.441,-252C258.441,-252 228.441,-252 228.441,-252 222.441,-252 216.441,-246 216.441,-240 216.441,-240 216.441,-228 216.441,-228 216.441,-222 222.441,-216 228.441,-216 228.441,-216 258.441,-216 258.441,-216 264.441,-216 270.441,-222 270.441,-228 270.441,-228 270.441,-240 270.441,-240 270.441,-246 264.441,-252 258.441,-252"/>
<text text-anchor="middle" x="243.441" y="-229.8" font-family="Times,serif" font-size="14.00">c3</text>
</g>
<!-- BR2&#45;&gt;c3 -->
<g id="edge2" class="edge"><title>BR2&#45;&gt;c3</title>
<path fill="none" stroke="black" d="M243.441,-287.697C243.441,-279.983 243.441,-270.712 243.441,-262.112"/>
<polygon fill="black" stroke="black" points="246.942,-262.104 243.441,-252.104 239.942,-262.104 246.942,-262.104"/>
</g>
<!-- c1 -->
<g id="node4" class="node"><title>c1</title>
<path fill="yellow" stroke="black" d="M224.441,-180C224.441,-180 194.441,-180 194.441,-180 188.441,-180 182.441,-174 182.441,-168 182.441,-168 182.441,-156 182.441,-156 182.441,-150 188.441,-144 194.441,-144 194.441,-144 224.441,-144 224.441,-144 230.441,-144 236.441,-150 236.441,-156 236.441,-156 236.441,-168 236.441,-168 236.441,-174 230.441,-180 224.441,-180"/>
<text text-anchor="middle" x="209.441" y="-157.8" font-family="Times,serif" font-size="14.00">c1</text>
</g>
<!-- t1 -->
<g id="node8" class="node"><title>t1</title>
<path fill="chartreuse" stroke="black" d="M219.441,-108C219.441,-108 189.441,-108 189.441,-108 183.441,-108 177.441,-102 177.441,-96 177.441,-96 177.441,-84 177.441,-84 177.441,-78 183.441,-72 189.441,-72 189.441,-72 219.441,-72 219.441,-72 225.441,-72 231.441,-78 231.441,-84 231.441,-84 231.441,-96 231.441,-96 231.441,-102 225.441,-108 219.441,-108"/>
<text text-anchor="middle" x="204.441" y="-85.8" font-family="Times,serif" font-size="14.00">t1</text>
</g>
<!-- c1&#45;&gt;t1 -->
<g id="edge3" class="edge"><title>c1&#45;&gt;t1</title>
<path fill="none" stroke="black" d="M208.205,-143.697C207.654,-135.983 206.992,-126.712 206.378,-118.112"/>
<polygon fill="black" stroke="black" points="209.867,-117.83 205.663,-108.104 202.885,-118.328 209.867,-117.83"/>
</g>
<!-- c2 -->
<g id="node5" class="node"><title>c2</title>
<path fill="yellow" stroke="black" d="M186.441,-252C186.441,-252 156.441,-252 156.441,-252 150.441,-252 144.441,-246 144.441,-240 144.441,-240 144.441,-228 144.441,-228 144.441,-222 150.441,-216 156.441,-216 156.441,-216 186.441,-216 186.441,-216 192.441,-216 198.441,-222 198.441,-228 198.441,-228 198.441,-240 198.441,-240 198.441,-246 192.441,-252 186.441,-252"/>
<text text-anchor="middle" x="171.441" y="-229.8" font-family="Times,serif" font-size="14.00">c2</text>
</g>
<!-- c2&#45;&gt;c1 -->
<g id="edge13" class="edge"><title>c2&#45;&gt;c1</title>
<path fill="none" stroke="black" d="M180.835,-215.697C185.206,-207.644 190.499,-197.894 195.337,-188.982"/>
<polygon fill="black" stroke="black" points="198.461,-190.563 200.156,-180.104 192.309,-187.223 198.461,-190.563"/>
</g>
<!-- t2 -->
<g id="node9" class="node"><title>t2</title>
<path fill="chartreuse" stroke="black" d="M147.441,-108C147.441,-108 117.441,-108 117.441,-108 111.441,-108 105.441,-102 105.441,-96 105.441,-96 105.441,-84 105.441,-84 105.441,-78 111.441,-72 117.441,-72 117.441,-72 147.441,-72 147.441,-72 153.441,-72 159.441,-78 159.441,-84 159.441,-84 159.441,-96 159.441,-96 159.441,-102 153.441,-108 147.441,-108"/>
<text text-anchor="middle" x="132.441" y="-85.8" font-family="Times,serif" font-size="14.00">t2</text>
</g>
<!-- c2&#45;&gt;t2 -->
<g id="edge14" class="edge"><title>c2&#45;&gt;t2</title>
<path fill="none" stroke="black" d="M166.737,-215.871C160.061,-191.564 147.772,-146.819 139.861,-118.013"/>
<polygon fill="black" stroke="black" points="143.186,-116.905 137.162,-108.189 136.436,-118.759 143.186,-116.905"/>
</g>
<!-- c3&#45;&gt;c1 -->
<g id="edge15" class="edge"><title>c3&#45;&gt;c1</title>
<path fill="none" stroke="black" d="M235.037,-215.697C231.167,-207.728 226.49,-198.1 222.198,-189.264"/>
<polygon fill="black" stroke="black" points="225.267,-187.57 217.749,-180.104 218.97,-190.629 225.267,-187.57"/>
</g>
<!-- t3 -->
<g id="node10" class="node"><title>t3</title>
<path fill="chartreuse" stroke="black" d="M291.441,-108C291.441,-108 261.441,-108 261.441,-108 255.441,-108 249.441,-102 249.441,-96 249.441,-96 249.441,-84 249.441,-84 249.441,-78 255.441,-72 261.441,-72 261.441,-72 291.441,-72 291.441,-72 297.441,-72 303.441,-78 303.441,-84 303.441,-84 303.441,-96 303.441,-96 303.441,-102 297.441,-108 291.441,-108"/>
<text text-anchor="middle" x="276.441" y="-85.8" font-family="Times,serif" font-size="14.00">t3</text>
</g>
<!-- c3&#45;&gt;t3 -->
<g id="edge16" class="edge"><title>c3&#45;&gt;t3</title>
<path fill="none" stroke="black" d="M247.422,-215.871C253.071,-191.564 263.469,-146.819 270.164,-118.013"/>
<polygon fill="black" stroke="black" points="273.592,-118.722 272.447,-108.189 266.774,-117.137 273.592,-118.722"/>
</g>
<!-- c4&#45;&gt;c2 -->
<g id="edge18" class="edge"><title>c4&#45;&gt;c2</title>
<path fill="none" stroke="red" d="M171.441,-287.697C171.441,-279.983 171.441,-270.712 171.441,-262.112"/>
<polygon fill="red" stroke="red" points="174.942,-262.104 171.441,-252.104 167.942,-262.104 174.942,-262.104"/>
</g>
<!-- c4&#45;&gt;c3 -->
<g id="edge19" class="edge"><title>c4&#45;&gt;c3</title>
<path fill="none" stroke="red" d="M189.239,-287.697C198.045,-279.135 208.824,-268.656 218.443,-259.304"/>
<polygon fill="red" stroke="red" points="221.118,-261.585 225.848,-252.104 216.239,-256.566 221.118,-261.585"/>
</g>
<!-- c4&#45;&gt;t2 -->
<g id="edge20" class="edge"><title>c4&#45;&gt;t2</title>
<path fill="none" stroke="red" d="M155.929,-287.743C148.195,-277.991 139.618,-265.145 135.441,-252 121.142,-206.997 124.406,-151.292 128.282,-118.598"/>
<polygon fill="red" stroke="red" points="131.784,-118.808 129.595,-108.441 124.842,-117.91 131.784,-118.808"/>
</g>
<!-- b1 -->
<g id="node11" class="node"><title>b1</title>
<path fill="cyan" stroke="black" d="M147.441,-36C147.441,-36 117.441,-36 117.441,-36 111.441,-36 105.441,-30 105.441,-24 105.441,-24 105.441,-12 105.441,-12 105.441,-6 111.441,-0 117.441,-0 117.441,-0 147.441,-0 147.441,-0 153.441,-0 159.441,-6 159.441,-12 159.441,-12 159.441,-24 159.441,-24 159.441,-30 153.441,-36 147.441,-36"/>
<text text-anchor="middle" x="132.441" y="-13.8" font-family="Times,serif" font-size="14.00">b1</text>
</g>
<!-- t1&#45;&gt;b1 -->
<g id="edge4" class="edge"><title>t1&#45;&gt;b1</title>
<path fill="none" stroke="black" d="M186.644,-71.6966C177.837,-63.135 167.059,-52.6562 157.44,-43.3045"/>
<polygon fill="black" stroke="black" points="159.644,-40.5657 150.034,-36.1043 154.765,-45.5846 159.644,-40.5657"/>
</g>
<!-- b2 -->
<g id="node12" class="node"><title>b2</title>
<path fill="cyan" stroke="black" d="M219.441,-36C219.441,-36 189.441,-36 189.441,-36 183.441,-36 177.441,-30 177.441,-24 177.441,-24 177.441,-12 177.441,-12 177.441,-6 183.441,-0 189.441,-0 189.441,-0 219.441,-0 219.441,-0 225.441,-0 231.441,-6 231.441,-12 231.441,-12 231.441,-24 231.441,-24 231.441,-30 225.441,-36 219.441,-36"/>
<text text-anchor="middle" x="204.441" y="-13.8" font-family="Times,serif" font-size="14.00">b2</text>
</g>
<!-- t1&#45;&gt;b2 -->
<g id="edge5" class="edge"><title>t1&#45;&gt;b2</title>
<path fill="none" stroke="black" d="M204.441,-71.6966C204.441,-63.9827 204.441,-54.7125 204.441,-46.1124"/>
<polygon fill="black" stroke="black" points="207.942,-46.1043 204.441,-36.1043 200.942,-46.1044 207.942,-46.1043"/>
</g>
<!-- b3 -->
<g id="node13" class="node"><title>b3</title>
<path fill="cyan" stroke="black" d="M291.441,-36C291.441,-36 261.441,-36 261.441,-36 255.441,-36 249.441,-30 249.441,-24 249.441,-24 249.441,-12 249.441,-12 249.441,-6 255.441,-0 261.441,-0 261.441,-0 291.441,-0 291.441,-0 297.441,-0 303.441,-6 303.441,-12 303.441,-12 303.441,-24 303.441,-24 303.441,-30 297.441,-36 291.441,-36"/>
<text text-anchor="middle" x="276.441" y="-13.8" font-family="Times,serif" font-size="14.00">b3</text>
</g>
<!-- t1&#45;&gt;b3 -->
<g id="edge6" class="edge"><title>t1&#45;&gt;b3</title>
<path fill="none" stroke="black" d="M222.239,-71.6966C231.045,-63.135 241.824,-52.6562 251.443,-43.3045"/>
<polygon fill="black" stroke="black" points="254.118,-45.5846 258.848,-36.1043 249.239,-40.5657 254.118,-45.5846"/>
</g>
<!-- t2&#45;&gt;b1 -->
<g id="edge7" class="edge"><title>t2&#45;&gt;b1</title>
<path fill="none" stroke="black" d="M132.441,-71.6966C132.441,-63.9827 132.441,-54.7125 132.441,-46.1124"/>
<polygon fill="black" stroke="black" points="135.942,-46.1043 132.441,-36.1043 128.942,-46.1044 135.942,-46.1043"/>
</g>
<!-- t2&#45;&gt;b2 -->
<g id="edge8" class="edge"><title>t2&#45;&gt;b2</title>
<path fill="none" stroke="black" d="M150.239,-71.6966C159.045,-63.135 169.824,-52.6562 179.443,-43.3045"/>
<polygon fill="black" stroke="black" points="182.118,-45.5846 186.848,-36.1043 177.239,-40.5657 182.118,-45.5846"/>
</g>
<!-- b4 -->
<g id="node14" class="node"><title>b4</title>
<path fill="cyan" stroke="black" d="M75.4414,-36C75.4414,-36 45.4414,-36 45.4414,-36 39.4414,-36 33.4414,-30 33.4414,-24 33.4414,-24 33.4414,-12 33.4414,-12 33.4414,-6 39.4414,-0 45.4414,-0 45.4414,-0 75.4414,-0 75.4414,-0 81.4414,-0 87.4414,-6 87.4414,-12 87.4414,-12 87.4414,-24 87.4414,-24 87.4414,-30 81.4414,-36 75.4414,-36"/>
<text text-anchor="middle" x="60.4414" y="-13.8" font-family="Times,serif" font-size="14.00">b4</text>
</g>
<!-- t2&#45;&gt;b4 -->
<g id="edge9" class="edge"><title>t2&#45;&gt;b4</title>
<path fill="none" stroke="black" d="M114.644,-71.6966C105.837,-63.135 95.0593,-52.6562 85.4403,-43.3045"/>
<polygon fill="black" stroke="black" points="87.6442,-40.5657 78.0344,-36.1043 82.7646,-45.5846 87.6442,-40.5657"/>
</g>
<!-- t3&#45;&gt;b2 -->
<g id="edge10" class="edge"><title>t3&#45;&gt;b2</title>
<path fill="none" stroke="black" d="M258.644,-71.6966C249.837,-63.135 239.059,-52.6562 229.44,-43.3045"/>
<polygon fill="black" stroke="black" points="231.644,-40.5657 222.034,-36.1043 226.765,-45.5846 231.644,-40.5657"/>
</g>
<!-- t3&#45;&gt;b3 -->
<g id="edge11" class="edge"><title>t3&#45;&gt;b3</title>
<path fill="none" stroke="black" d="M276.441,-71.6966C276.441,-63.9827 276.441,-54.7125 276.441,-46.1124"/>
<polygon fill="black" stroke="black" points="279.942,-46.1043 276.441,-36.1043 272.942,-46.1044 279.942,-46.1043"/>
</g>
<!-- b5 -->
<g id="node15" class="node"><title>b5</title>
<path fill="cyan" stroke="black" d="M363.441,-36C363.441,-36 333.441,-36 333.441,-36 327.441,-36 321.441,-30 321.441,-24 321.441,-24 321.441,-12 321.441,-12 321.441,-6 327.441,-0 333.441,-0 333.441,-0 363.441,-0 363.441,-0 369.441,-0 375.441,-6 375.441,-12 375.441,-12 375.441,-24 375.441,-24 375.441,-30 369.441,-36 363.441,-36"/>
<text text-anchor="middle" x="348.441" y="-13.8" font-family="Times,serif" font-size="14.00">b5</text>
</g>
<!-- t3&#45;&gt;b5 -->
<g id="edge12" class="edge"><title>t3&#45;&gt;b5</title>
<path fill="none" stroke="black" d="M294.239,-71.6966C303.045,-63.135 313.824,-52.6562 323.443,-43.3045"/>
<polygon fill="black" stroke="black" points="326.118,-45.5846 330.848,-36.1043 321.239,-40.5657 326.118,-45.5846"/>
</g>
</g>
</svg>
