<?xml version="1.0" encoding="UTF-8" standalone="no"?>
<!DOCTYPE svg PUBLIC "-//W3C//DTD SVG 1.1//EN"
 "http://www.w3.org/Graphics/SVG/1.1/DTD/svg11.dtd">
<!-- Generated by graphviz version 2.38.0 (20140413.2041)
 -->
<!-- Title: merge_start_dag Pages: 1 -->
<svg width="494pt" height="332pt"
 viewBox="0.00 0.00 494.00 332.00" xmlns="http://www.w3.org/2000/svg" xmlns:xlink="http://www.w3.org/1999/xlink">
<g id="graph0" class="graph" transform="scale(1 1) rotate(0) translate(4 328)">
<title>merge_start_dag</title>
<!-- HEAD -->
<g id="node1" class="node"><title>HEAD</title>
<path fill="white" stroke="black" d="M114.383,-324C114.383,-324 83.6171,-324 83.6171,-324 77.6171,-324 71.6171,-318 71.6171,-312 71.6171,-312 71.6171,-300 71.6171,-300 71.6171,-294 77.6171,-288 83.6171,-288 83.6171,-288 114.383,-288 114.383,-288 120.383,-288 126.383,-294 126.383,-300 126.383,-300 126.383,-312 126.383,-312 126.383,-318 120.383,-324 114.383,-324"/>
<text text-anchor="middle" x="99" y="-301.8" font-family="Times,serif" font-size="14.00">HEAD</text>
</g>
<!-- BR1 -->
<g id="node2" class="node"><title>BR1</title>
<path fill="white" stroke="black" d="M186,-324C186,-324 156,-324 156,-324 150,-324 144,-318 144,-312 144,-312 144,-300 144,-300 144,-294 150,-288 156,-288 156,-288 186,-288 186,-288 192,-288 198,-294 198,-300 198,-300 198,-312 198,-312 198,-318 192,-324 186,-324"/>
<text text-anchor="middle" x="171" y="-301.8" font-family="Times,serif" font-size="14.00">BR1</text>
</g>
<!-- HEAD&#45;&gt;BR1 -->
<g id="edge1" class="edge"><title>HEAD&#45;&gt;BR1</title>
<path fill="none" stroke="black" d="M126.562,-306C129.004,-306 131.445,-306 133.886,-306"/>
<polygon fill="black" stroke="black" points="133.921,-309.5 143.921,-306 133.921,-302.5 133.921,-309.5"/>
</g>
<!-- c4 -->
<g id="node7" class="node"><title>c4</title>
<path fill="yellow" stroke="black" d="M258,-324C258,-324 228,-324 228,-324 222,-324 216,-318 216,-312 216,-312 216,-300 216,-300 216,-294 222,-288 228,-288 228,-288 258,-288 258,-288 264,-288 270,-294 270,-300 270,-300 270,-312 270,-312 270,-318 264,-324 258,-324"/>
<text text-anchor="middle" x="243" y="-301.8" font-family="Times,serif" font-size="14.00">c4</text>
</g>
<!-- BR1&#45;&gt;c4 -->
<g id="edge18" class="edge"><title>BR1&#45;&gt;c4</title>
<path fill="none" stroke="red" d="M198.281,-306C200.738,-306 203.194,-306 205.651,-306"/>
<polygon fill="red" stroke="red" points="205.75,-309.5 215.75,-306 205.749,-302.5 205.75,-309.5"/>
</g>
<!-- BR2 -->
<g id="node3" class="node"><title>BR2</title>
<path fill="white" stroke="black" d="M330,-324C330,-324 300,-324 300,-324 294,-324 288,-318 288,-312 288,-312 288,-300 288,-300 288,-294 294,-288 300,-288 300,-288 330,-288 330,-288 336,-288 342,-294 342,-300 342,-300 342,-312 342,-312 342,-318 336,-324 330,-324"/>
<text text-anchor="middle" x="315" y="-301.8" font-family="Times,serif" font-size="14.00">BR2</text>
</g>
<!-- c3 -->
<g id="node6" class="node"><title>c3</title>
<path fill="yellow" stroke="black" d="M258,-252C258,-252 228,-252 228,-252 222,-252 216,-246 216,-240 216,-240 216,-228 216,-228 216,-222 222,-216 228,-216 228,-216 258,-216 258,-216 264,-216 270,-222 270,-228 270,-228 270,-240 270,-240 270,-246 264,-252 258,-252"/>
<text text-anchor="middle" x="243" y="-229.8" font-family="Times,serif" font-size="14.00">c3</text>
</g>
<!-- BR2&#45;&gt;c3 -->
<g id="edge2" class="edge"><title>BR2&#45;&gt;c3</title>
<path fill="none" stroke="black" d="M297.202,-287.697C288.396,-279.135 277.618,-268.656 267.999,-259.304"/>
<polygon fill="black" stroke="black" points="270.203,-256.566 260.593,-252.104 265.323,-261.585 270.203,-256.566"/>
</g>
<!-- c1 -->
<g id="node4" class="node"><title>c1</title>
<path fill="yellow" stroke="black" d="M186,-180C186,-180 156,-180 156,-180 150,-180 144,-174 144,-168 144,-168 144,-156 144,-156 144,-150 150,-144 156,-144 156,-144 186,-144 186,-144 192,-144 198,-150 198,-156 198,-156 198,-168 198,-168 198,-174 192,-180 186,-180"/>
<text text-anchor="middle" x="171" y="-157.8" font-family="Times,serif" font-size="14.00">c1</text>
</g>
<!-- t1 -->
<g id="node8" class="node"><title>t1</title>
<path fill="chartreuse" stroke="black" d="M186,-108C186,-108 156,-108 156,-108 150,-108 144,-102 144,-96 144,-96 144,-84 144,-84 144,-78 150,-72 156,-72 156,-72 186,-72 186,-72 192,-72 198,-78 198,-84 198,-84 198,-96 198,-96 198,-102 192,-108 186,-108"/>
<text text-anchor="middle" x="171" y="-85.8" font-family="Times,serif" font-size="14.00">t1</text>
</g>
<!-- c1&#45;&gt;t1 -->
<g id="edge3" class="edge"><title>c1&#45;&gt;t1</title>
<path fill="none" stroke="black" d="M171,-143.697C171,-135.983 171,-126.712 171,-118.112"/>
<polygon fill="black" stroke="black" points="174.5,-118.104 171,-108.104 167.5,-118.104 174.5,-118.104"/>
</g>
<!-- c2 -->
<g id="node5" class="node"><title>c2</title>
<path fill="yellow" stroke="black" d="M186,-252C186,-252 156,-252 156,-252 150,-252 144,-246 144,-240 144,-240 144,-228 144,-228 144,-222 150,-216 156,-216 156,-216 186,-216 186,-216 192,-216 198,-222 198,-228 198,-228 198,-240 198,-240 198,-246 192,-252 186,-252"/>
<text text-anchor="middle" x="171" y="-229.8" font-family="Times,serif" font-size="14.00">c2</text>
</g>
<!-- c2&#45;&gt;c1 -->
<g id="edge14" class="edge"><title>c2&#45;&gt;c1</title>
<path fill="none" stroke="black" d="M171,-215.697C171,-207.983 171,-198.712 171,-190.112"/>
<polygon fill="black" stroke="black" points="174.5,-190.104 171,-180.104 167.5,-190.104 174.5,-190.104"/>
</g>
<!-- t2 -->
<g id="node9" class="node"><title>t2</title>
<path fill="chartreuse" stroke="black" d="M114,-108C114,-108 84,-108 84,-108 78,-108 72,-102 72,-96 72,-96 72,-84 72,-84 72,-78 78,-72 84,-72 84,-72 114,-72 114,-72 120,-72 126,-78 126,-84 126,-84 126,-96 126,-96 126,-102 120,-108 114,-108"/>
<text text-anchor="middle" x="99" y="-85.8" font-family="Times,serif" font-size="14.00">t2</text>
</g>
<!-- c2&#45;&gt;t2 -->
<g id="edge15" class="edge"><title>c2&#45;&gt;t2</title>
<path fill="none" stroke="black" d="M158.03,-215.919C150.707,-205.809 141.707,-192.559 135,-180 124.251,-159.873 114.704,-135.822 108.147,-117.799"/>
<polygon fill="black" stroke="black" points="111.386,-116.461 104.734,-108.215 104.791,-118.81 111.386,-116.461"/>
</g>
<!-- c3&#45;&gt;c1 -->
<g id="edge16" class="edge"><title>c3&#45;&gt;c1</title>
<path fill="none" stroke="black" d="M225.202,-215.697C216.396,-207.135 205.618,-196.656 195.999,-187.304"/>
<polygon fill="black" stroke="black" points="198.203,-184.566 188.593,-180.104 193.323,-189.585 198.203,-184.566"/>
</g>
<!-- t3 -->
<g id="node10" class="node"><title>t3</title>
<path fill="chartreuse" stroke="black" d="M258,-108C258,-108 228,-108 228,-108 222,-108 216,-102 216,-96 216,-96 216,-84 216,-84 216,-78 222,-72 228,-72 228,-72 258,-72 258,-72 264,-72 270,-78 270,-84 270,-84 270,-96 270,-96 270,-102 264,-108 258,-108"/>
<text text-anchor="middle" x="243" y="-85.8" font-family="Times,serif" font-size="14.00">t3</text>
</g>
<!-- c3&#45;&gt;t3 -->
<g id="edge17" class="edge"><title>c3&#45;&gt;t3</title>
<path fill="none" stroke="black" d="M243,-215.871C243,-191.67 243,-147.211 243,-118.393"/>
<polygon fill="black" stroke="black" points="246.5,-118.189 243,-108.189 239.5,-118.189 246.5,-118.189"/>
</g>
<!-- c4&#45;&gt;c2 -->
<g id="edge19" class="edge"><title>c4&#45;&gt;c2</title>
<path fill="none" stroke="red" d="M225.202,-287.697C216.396,-279.135 205.618,-268.656 195.999,-259.304"/>
<polygon fill="red" stroke="red" points="198.203,-256.566 188.593,-252.104 193.323,-261.585 198.203,-256.566"/>
</g>
<!-- c4&#45;&gt;c3 -->
<g id="edge20" class="edge"><title>c4&#45;&gt;c3</title>
<path fill="none" stroke="red" d="M243,-287.697C243,-279.983 243,-270.712 243,-262.112"/>
<polygon fill="red" stroke="red" points="246.5,-262.104 243,-252.104 239.5,-262.104 246.5,-262.104"/>
</g>
<!-- t4 -->
<g id="node11" class="node"><title>t4</title>
<path fill="chartreuse" stroke="black" d="M366,-108C366,-108 336,-108 336,-108 330,-108 324,-102 324,-96 324,-96 324,-84 324,-84 324,-78 330,-72 336,-72 336,-72 366,-72 366,-72 372,-72 378,-78 378,-84 378,-84 378,-96 378,-96 378,-102 372,-108 366,-108"/>
<text text-anchor="middle" x="351" y="-85.8" font-family="Times,serif" font-size="14.00">t4</text>
</g>
<!-- c4&#45;&gt;t4 -->
<g id="edge21" class="edge"><title>c4&#45;&gt;t4</title>
<path fill="none" stroke="red" d="M255.8,-287.827C263.067,-277.686 272.067,-264.436 279,-252 304.293,-206.632 327.681,-150.693 340.583,-118.115"/>
<polygon fill="red" stroke="red" points="343.999,-118.989 344.392,-108.402 337.482,-116.434 343.999,-118.989"/>
</g>
<!-- b1 -->
<g id="node12" class="node"><title>b1</title>
<path fill="cyan" stroke="black" d="M114,-36C114,-36 84,-36 84,-36 78,-36 72,-30 72,-24 72,-24 72,-12 72,-12 72,-6 78,-0 84,-0 84,-0 114,-0 114,-0 120,-0 126,-6 126,-12 126,-12 126,-24 126,-24 126,-30 120,-36 114,-36"/>
<text text-anchor="middle" x="99" y="-13.8" font-family="Times,serif" font-size="14.00">b1</text>
</g>
<!-- t1&#45;&gt;b1 -->
<g id="edge4" class="edge"><title>t1&#45;&gt;b1</title>
<path fill="none" stroke="black" d="M153.202,-71.6966C144.396,-63.135 133.618,-52.6562 123.999,-43.3045"/>
<polygon fill="black" stroke="black" points="126.203,-40.5657 116.593,-36.1043 121.323,-45.5846 126.203,-40.5657"/>
</g>
<!-- b2 -->
<g id="node13" class="node"><title>b2</title>
<path fill="cyan" stroke="black" d="M186,-36C186,-36 156,-36 156,-36 150,-36 144,-30 144,-24 144,-24 144,-12 144,-12 144,-6 150,-0 156,-0 156,-0 186,-0 186,-0 192,-0 198,-6 198,-12 198,-12 198,-24 198,-24 198,-30 192,-36 186,-36"/>
<text text-anchor="middle" x="171" y="-13.8" font-family="Times,serif" font-size="14.00">b2</text>
</g>
<!-- t1&#45;&gt;b2 -->
<g id="edge5" class="edge"><title>t1&#45;&gt;b2</title>
<path fill="none" stroke="black" d="M171,-71.6966C171,-63.9827 171,-54.7125 171,-46.1124"/>
<polygon fill="black" stroke="black" points="174.5,-46.1043 171,-36.1043 167.5,-46.1044 174.5,-46.1043"/>
</g>
<!-- b3 -->
<g id="node14" class="node"><title>b3</title>
<path fill="cyan" stroke="black" d="M258,-36C258,-36 228,-36 228,-36 222,-36 216,-30 216,-24 216,-24 216,-12 216,-12 216,-6 222,-0 228,-0 228,-0 258,-0 258,-0 264,-0 270,-6 270,-12 270,-12 270,-24 270,-24 270,-30 264,-36 258,-36"/>
<text text-anchor="middle" x="243" y="-13.8" font-family="Times,serif" font-size="14.00">b3</text>
</g>
<!-- t1&#45;&gt;b3 -->
<g id="edge6" class="edge"><title>t1&#45;&gt;b3</title>
<path fill="none" stroke="black" d="M188.798,-71.6966C197.604,-63.135 208.382,-52.6562 218.001,-43.3045"/>
<polygon fill="black" stroke="black" points="220.677,-45.5846 225.407,-36.1043 215.797,-40.5657 220.677,-45.5846"/>
</g>
<!-- t2&#45;&gt;b1 -->
<g id="edge7" class="edge"><title>t2&#45;&gt;b1</title>
<path fill="none" stroke="black" d="M99,-71.6966C99,-63.9827 99,-54.7125 99,-46.1124"/>
<polygon fill="black" stroke="black" points="102.5,-46.1043 99,-36.1043 95.5001,-46.1044 102.5,-46.1043"/>
</g>
<!-- t2&#45;&gt;b2 -->
<g id="edge8" class="edge"><title>t2&#45;&gt;b2</title>
<path fill="none" stroke="black" d="M116.798,-71.6966C125.604,-63.135 136.382,-52.6562 146.001,-43.3045"/>
<polygon fill="black" stroke="black" points="148.677,-45.5846 153.407,-36.1043 143.797,-40.5657 148.677,-45.5846"/>
</g>
<!-- b4 -->
<g id="node15" class="node"><title>b4</title>
<path fill="cyan" stroke="black" d="M42,-36C42,-36 12,-36 12,-36 6,-36 0,-30 0,-24 0,-24 0,-12 0,-12 0,-6 6,-0 12,-0 12,-0 42,-0 42,-0 48,-0 54,-6 54,-12 54,-12 54,-24 54,-24 54,-30 48,-36 42,-36"/>
<text text-anchor="middle" x="27" y="-13.8" font-family="Times,serif" font-size="14.00">b4</text>
</g>
<!-- t2&#45;&gt;b4 -->
<g id="edge9" class="edge"><title>t2&#45;&gt;b4</title>
<path fill="none" stroke="black" d="M81.2022,-71.6966C72.396,-63.135 61.6179,-52.6562 51.9989,-43.3045"/>
<polygon fill="black" stroke="black" points="54.2028,-40.5657 44.593,-36.1043 49.3232,-45.5846 54.2028,-40.5657"/>
</g>
<!-- t3&#45;&gt;b2 -->
<g id="edge10" class="edge"><title>t3&#45;&gt;b2</title>
<path fill="none" stroke="black" d="M225.202,-71.6966C216.396,-63.135 205.618,-52.6562 195.999,-43.3045"/>
<polygon fill="black" stroke="black" points="198.203,-40.5657 188.593,-36.1043 193.323,-45.5846 198.203,-40.5657"/>
</g>
<!-- t3&#45;&gt;b3 -->
<g id="edge11" class="edge"><title>t3&#45;&gt;b3</title>
<path fill="none" stroke="black" d="M243,-71.6966C243,-63.9827 243,-54.7125 243,-46.1124"/>
<polygon fill="black" stroke="black" points="246.5,-46.1043 243,-36.1043 239.5,-46.1044 246.5,-46.1043"/>
</g>
<!-- b5 -->
<g id="node16" class="node"><title>b5</title>
<path fill="cyan" stroke="black" d="M330,-36C330,-36 300,-36 300,-36 294,-36 288,-30 288,-24 288,-24 288,-12 288,-12 288,-6 294,-0 300,-0 300,-0 330,-0 330,-0 336,-0 342,-6 342,-12 342,-12 342,-24 342,-24 342,-30 336,-36 330,-36"/>
<text text-anchor="middle" x="315" y="-13.8" font-family="Times,serif" font-size="14.00">b5</text>
</g>
<!-- t3&#45;&gt;b5 -->
<g id="edge12" class="edge"><title>t3&#45;&gt;b5</title>
<path fill="none" stroke="black" d="M260.798,-71.6966C269.604,-63.135 280.382,-52.6562 290.001,-43.3045"/>
<polygon fill="black" stroke="black" points="292.677,-45.5846 297.407,-36.1043 287.797,-40.5657 292.677,-45.5846"/>
</g>
<!-- t4&#45;&gt;b2 -->
<g id="edge13" class="edge"><title>t4&#45;&gt;b2</title>
<path fill="none" stroke="black" d="M323.918,-79.8367C296.645,-70.4346 253.228,-54.9941 207.492,-36.0367"/>
<polygon fill="black" stroke="black" points="208.587,-32.7008 198.011,-32.0693 205.885,-39.1582 208.587,-32.7008"/>
</g>
<!-- b6 -->
<g id="node17" class="node"><title>b6</title>
<path fill="cyan" stroke="black" d="M474,-36C474,-36 444,-36 444,-36 438,-36 432,-30 432,-24 432,-24 432,-12 432,-12 432,-6 438,-0 444,-0 444,-0 474,-0 474,-0 480,-0 486,-6 486,-12 486,-12 486,-24 486,-24 486,-30 480,-36 474,-36"/>
<text text-anchor="middle" x="459" y="-13.8" font-family="Times,serif" font-size="14.00">b6</text>
</g>
<!-- t4&#45;&gt;b6 -->
<g id="edge22" class="edge"><title>t4&#45;&gt;b6</title>
<path fill="none" stroke="red" d="M377.42,-71.8761C391.41,-62.8083 408.776,-51.5523 423.886,-41.7592"/>
<polygon fill="red" stroke="red" points="425.991,-44.5658 432.479,-36.1898 422.183,-38.6917 425.991,-44.5658"/>
</g>
<!-- b7 -->
<g id="node18" class="node"><title>b7</title>
<path fill="cyan" stroke="black" d="M402,-36C402,-36 372,-36 372,-36 366,-36 360,-30 360,-24 360,-24 360,-12 360,-12 360,-6 366,-0 372,-0 372,-0 402,-0 402,-0 408,-0 414,-6 414,-12 414,-12 414,-24 414,-24 414,-30 408,-36 402,-36"/>
<text text-anchor="middle" x="387" y="-13.8" font-family="Times,serif" font-size="14.00">b7</text>
</g>
<!-- t4&#45;&gt;b7 -->
<g id="edge23" class="edge"><title>t4&#45;&gt;b7</title>
<path fill="none" stroke="red" d="M359.899,-71.6966C363.997,-63.7284 368.949,-54.0995 373.493,-45.2641"/>
<polygon fill="red" stroke="red" points="376.742,-46.598 378.203,-36.1043 370.517,-43.3965 376.742,-46.598"/>
</g>
</g>
</svg>
