<?xml version="1.0" encoding="UTF-8" standalone="no"?>
<!DOCTYPE svg PUBLIC "-//W3C//DTD SVG 1.1//EN"
 "http://www.w3.org/Graphics/SVG/1.1/DTD/svg11.dtd">
<!-- Generated by graphviz version 2.40.1 (20161225.0304)
 -->
<!-- Title: mergebranches1 Pages: 1 -->
<svg width="299pt" height="281pt"
 viewBox="0.00 0.00 299.24 280.80" xmlns="http://www.w3.org/2000/svg" xmlns:xlink="http://www.w3.org/1999/xlink">
<g id="graph0" class="graph" transform="scale(1 1) rotate(0) translate(14.4 266.4)">
<title>mergebranches1</title>
<!-- b1 -->
<g id="node1" class="node">
<title>b1</title>
<path fill="#ffffff" stroke="#000000" d="M42,-180C42,-180 12,-180 12,-180 6,-180 0,-174 0,-168 0,-168 0,-156 0,-156 0,-150 6,-144 12,-144 12,-144 42,-144 42,-144 48,-144 54,-150 54,-156 54,-156 54,-168 54,-168 54,-174 48,-180 42,-180"/>
<text text-anchor="middle" x="27" y="-157.8" font-family="Times,serif" font-size="14.00" fill="#000000">b1</text>
</g>
<!-- E -->
<g id="node4" class="node">
<title>E</title>
<path fill="#ffff00" stroke="#000000" d="M114,-180C114,-180 84,-180 84,-180 78,-180 72,-174 72,-168 72,-168 72,-156 72,-156 72,-150 78,-144 84,-144 84,-144 114,-144 114,-144 120,-144 126,-150 126,-156 126,-156 126,-168 126,-168 126,-174 120,-180 114,-180"/>
<text text-anchor="middle" x="99" y="-157.8" font-family="Times,serif" font-size="14.00" fill="#000000">E</text>
</g>
<!-- b1&#45;&gt;E -->
<g id="edge7" class="edge">
<title>b1&#45;&gt;E</title>
<path fill="none" stroke="#000000" d="M54.2813,-162C56.7377,-162 59.1942,-162 61.6507,-162"/>
<polygon fill="#000000" stroke="#000000" points="61.7495,-165.5001 71.7495,-162 61.7495,-158.5001 61.7495,-165.5001"/>
</g>
<!-- HEAD -->
<g id="node2" class="node">
<title>HEAD</title>
<path fill="#ffffff" stroke="#000000" d="M258.3829,-252C258.3829,-252 227.6171,-252 227.6171,-252 221.6171,-252 215.6171,-246 215.6171,-240 215.6171,-240 215.6171,-228 215.6171,-228 215.6171,-222 221.6171,-216 227.6171,-216 227.6171,-216 258.3829,-216 258.3829,-216 264.3829,-216 270.3829,-222 270.3829,-228 270.3829,-228 270.3829,-240 270.3829,-240 270.3829,-246 264.3829,-252 258.3829,-252"/>
<text text-anchor="middle" x="243" y="-229.8" font-family="Times,serif" font-size="14.00" fill="#000000">HEAD</text>
</g>
<!-- b2 -->
<g id="node3" class="node">
<title>b2</title>
<path fill="#ffffff" stroke="#000000" d="M258,-180C258,-180 228,-180 228,-180 222,-180 216,-174 216,-168 216,-168 216,-156 216,-156 216,-150 222,-144 228,-144 228,-144 258,-144 258,-144 264,-144 270,-150 270,-156 270,-156 270,-168 270,-168 270,-174 264,-180 258,-180"/>
<text text-anchor="middle" x="243" y="-157.8" font-family="Times,serif" font-size="14.00" fill="#000000">b2</text>
</g>
<!-- HEAD&#45;&gt;b2 -->
<g id="edge1" class="edge">
<title>HEAD&#45;&gt;b2</title>
<path fill="none" stroke="#000000" d="M243,-215.8314C243,-208.131 243,-198.9743 243,-190.4166"/>
<polygon fill="#000000" stroke="#000000" points="246.5001,-190.4132 243,-180.4133 239.5001,-190.4133 246.5001,-190.4132"/>
</g>
<!-- C -->
<g id="node7" class="node">
<title>C</title>
<path fill="#ffff00" stroke="#000000" d="M186,-180C186,-180 156,-180 156,-180 150,-180 144,-174 144,-168 144,-168 144,-156 144,-156 144,-150 150,-144 156,-144 156,-144 186,-144 186,-144 192,-144 198,-150 198,-156 198,-156 198,-168 198,-168 198,-174 192,-180 186,-180"/>
<text text-anchor="middle" x="171" y="-157.8" font-family="Times,serif" font-size="14.00" fill="#000000">C</text>
</g>
<!-- b2&#45;&gt;C -->
<g id="edge6" class="edge">
<title>b2&#45;&gt;C</title>
<path fill="none" stroke="#000000" d="M215.7495,-162C213.293,-162 210.8366,-162 208.3801,-162"/>
<polygon fill="#000000" stroke="#000000" points="208.2813,-158.5001 198.2813,-162 208.2812,-165.5001 208.2813,-158.5001"/>
</g>
<!-- D -->
<g id="node5" class="node">
<title>D</title>
<path fill="#ffff00" stroke="#000000" d="M114,-108C114,-108 84,-108 84,-108 78,-108 72,-102 72,-96 72,-96 72,-84 72,-84 72,-78 78,-72 84,-72 84,-72 114,-72 114,-72 120,-72 126,-78 126,-84 126,-84 126,-96 126,-96 126,-102 120,-108 114,-108"/>
<text text-anchor="middle" x="99" y="-85.8" font-family="Times,serif" font-size="14.00" fill="#000000">D</text>
</g>
<!-- E&#45;&gt;D -->
<g id="edge2" class="edge">
<title>E&#45;&gt;D</title>
<path fill="none" stroke="#000000" d="M99,-143.8314C99,-136.131 99,-126.9743 99,-118.4166"/>
<polygon fill="#000000" stroke="#000000" points="102.5001,-118.4132 99,-108.4133 95.5001,-118.4133 102.5001,-118.4132"/>
</g>
<!-- A -->
<g id="node6" class="node">
<title>A</title>
<path fill="#ffff00" stroke="#000000" d="M150,-36C150,-36 120,-36 120,-36 114,-36 108,-30 108,-24 108,-24 108,-12 108,-12 108,-6 114,0 120,0 120,0 150,0 150,0 156,0 162,-6 162,-12 162,-12 162,-24 162,-24 162,-30 156,-36 150,-36"/>
<text text-anchor="middle" x="135" y="-13.8" font-family="Times,serif" font-size="14.00" fill="#000000">A</text>
</g>
<!-- D&#45;&gt;A -->
<g id="edge3" class="edge">
<title>D&#45;&gt;A</title>
<path fill="none" stroke="#000000" d="M108.0843,-71.8314C112.0615,-63.8771 116.8155,-54.369 121.2139,-45.5723"/>
<polygon fill="#000000" stroke="#000000" points="124.4517,-46.9228 125.7934,-36.4133 118.1907,-43.7923 124.4517,-46.9228"/>
</g>
<!-- B -->
<g id="node8" class="node">
<title>B</title>
<path fill="#ffff00" stroke="#000000" d="M186,-108C186,-108 156,-108 156,-108 150,-108 144,-102 144,-96 144,-96 144,-84 144,-84 144,-78 150,-72 156,-72 156,-72 186,-72 186,-72 192,-72 198,-78 198,-84 198,-84 198,-96 198,-96 198,-102 192,-108 186,-108"/>
<text text-anchor="middle" x="171" y="-85.8" font-family="Times,serif" font-size="14.00" fill="#000000">B</text>
</g>
<!-- C&#45;&gt;B -->
<g id="edge4" class="edge">
<title>C&#45;&gt;B</title>
<path fill="none" stroke="#000000" d="M171,-143.8314C171,-136.131 171,-126.9743 171,-118.4166"/>
<polygon fill="#000000" stroke="#000000" points="174.5001,-118.4132 171,-108.4133 167.5001,-118.4133 174.5001,-118.4132"/>
</g>
<!-- B&#45;&gt;A -->
<g id="edge5" class="edge">
<title>B&#45;&gt;A</title>
<path fill="none" stroke="#000000" d="M161.9157,-71.8314C157.9385,-63.8771 153.1845,-54.369 148.7861,-45.5723"/>
<polygon fill="#000000" stroke="#000000" points="151.8093,-43.7923 144.2066,-36.4133 145.5483,-46.9228 151.8093,-43.7923"/>
</g>
</g>
</svg>
