<?xml version="1.0" encoding="UTF-8" standalone="no"?>
<!DOCTYPE svg PUBLIC "-//W3C//DTD SVG 1.1//EN"
 "http://www.w3.org/Graphics/SVG/1.1/DTD/svg11.dtd">
<!-- Generated by graphviz version 2.40.1 (20161225.0304)
 -->
<!-- Title: merge_ours_dag Pages: 1 -->
<svg width="383pt" height="332pt"
 viewBox="0.00 0.00 383.44 332.00" xmlns="http://www.w3.org/2000/svg" xmlns:xlink="http://www.w3.org/1999/xlink">
<g id="graph0" class="graph" transform="scale(1 1) rotate(0) translate(4 328)">
<title>merge_ours_dag</title>
<!-- HEAD -->
<g id="node1" class="node">
<title>HEAD</title>
<path fill="#ffffff" stroke="#000000" d="M42.8243,-324C42.8243,-324 12.0585,-324 12.0585,-324 6.0585,-324 .0585,-318 .0585,-312 .0585,-312 .0585,-300 .0585,-300 .0585,-294 6.0585,-288 12.0585,-288 12.0585,-288 42.8243,-288 42.8243,-288 48.8243,-288 54.8243,-294 54.8243,-300 54.8243,-300 54.8243,-312 54.8243,-312 54.8243,-318 48.8243,-324 42.8243,-324"/>
<text text-anchor="middle" x="27.4414" y="-301.8" font-family="Times,serif" font-size="14.00" fill="#000000">HEAD</text>
</g>
<!-- BR1 -->
<g id="node2" class="node">
<title>BR1</title>
<path fill="#ffffff" stroke="#000000" d="M114.4414,-324C114.4414,-324 84.4414,-324 84.4414,-324 78.4414,-324 72.4414,-318 72.4414,-312 72.4414,-312 72.4414,-300 72.4414,-300 72.4414,-294 78.4414,-288 84.4414,-288 84.4414,-288 114.4414,-288 114.4414,-288 120.4414,-288 126.4414,-294 126.4414,-300 126.4414,-300 126.4414,-312 126.4414,-312 126.4414,-318 120.4414,-324 114.4414,-324"/>
<text text-anchor="middle" x="99.4414" y="-301.8" font-family="Times,serif" font-size="14.00" fill="#000000">BR1</text>
</g>
<!-- HEAD&#45;&gt;BR1 -->
<g id="edge1" class="edge">
<title>HEAD&#45;&gt;BR1</title>
<path fill="none" stroke="#000000" d="M55.0039,-306C57.4449,-306 59.886,-306 62.327,-306"/>
<polygon fill="#000000" stroke="#000000" points="62.3623,-309.5001 72.3623,-306 62.3623,-302.5001 62.3623,-309.5001"/>
</g>
<!-- c4 -->
<g id="node7" class="node">
<title>c4</title>
<path fill="#ffff00" stroke="#000000" d="M186.4414,-324C186.4414,-324 156.4414,-324 156.4414,-324 150.4414,-324 144.4414,-318 144.4414,-312 144.4414,-312 144.4414,-300 144.4414,-300 144.4414,-294 150.4414,-288 156.4414,-288 156.4414,-288 186.4414,-288 186.4414,-288 192.4414,-288 198.4414,-294 198.4414,-300 198.4414,-300 198.4414,-312 198.4414,-312 198.4414,-318 192.4414,-324 186.4414,-324"/>
<text text-anchor="middle" x="171.4414" y="-301.8" font-family="Times,serif" font-size="14.00" fill="#000000">c4</text>
</g>
<!-- BR1&#45;&gt;c4 -->
<g id="edge17" class="edge">
<title>BR1&#45;&gt;c4</title>
<path fill="none" stroke="#ff0000" d="M126.7227,-306C129.1791,-306 131.6356,-306 134.0921,-306"/>
<polygon fill="#ff0000" stroke="#ff0000" points="134.191,-309.5001 144.1909,-306 134.1909,-302.5001 134.191,-309.5001"/>
</g>
<!-- BR2 -->
<g id="node3" class="node">
<title>BR2</title>
<path fill="#ffffff" stroke="#000000" d="M258.4414,-324C258.4414,-324 228.4414,-324 228.4414,-324 222.4414,-324 216.4414,-318 216.4414,-312 216.4414,-312 216.4414,-300 216.4414,-300 216.4414,-294 222.4414,-288 228.4414,-288 228.4414,-288 258.4414,-288 258.4414,-288 264.4414,-288 270.4414,-294 270.4414,-300 270.4414,-300 270.4414,-312 270.4414,-312 270.4414,-318 264.4414,-324 258.4414,-324"/>
<text text-anchor="middle" x="243.4414" y="-301.8" font-family="Times,serif" font-size="14.00" fill="#000000">BR2</text>
</g>
<!-- c3 -->
<g id="node6" class="node">
<title>c3</title>
<path fill="#ffff00" stroke="#000000" d="M258.4414,-252C258.4414,-252 228.4414,-252 228.4414,-252 222.4414,-252 216.4414,-246 216.4414,-240 216.4414,-240 216.4414,-228 216.4414,-228 216.4414,-222 222.4414,-216 228.4414,-216 228.4414,-216 258.4414,-216 258.4414,-216 264.4414,-216 270.4414,-222 270.4414,-228 270.4414,-228 270.4414,-240 270.4414,-240 270.4414,-246 264.4414,-252 258.4414,-252"/>
<text text-anchor="middle" x="243.4414" y="-229.8" font-family="Times,serif" font-size="14.00" fill="#000000">c3</text>
</g>
<!-- BR2&#45;&gt;c3 -->
<g id="edge2" class="edge">
<title>BR2&#45;&gt;c3</title>
<path fill="none" stroke="#000000" d="M243.4414,-287.8314C243.4414,-280.131 243.4414,-270.9743 243.4414,-262.4166"/>
<polygon fill="#000000" stroke="#000000" points="246.9415,-262.4132 243.4414,-252.4133 239.9415,-262.4133 246.9415,-262.4132"/>
</g>
<!-- c1 -->
<g id="node4" class="node">
<title>c1</title>
<path fill="#ffff00" stroke="#000000" d="M224.4414,-180C224.4414,-180 194.4414,-180 194.4414,-180 188.4414,-180 182.4414,-174 182.4414,-168 182.4414,-168 182.4414,-156 182.4414,-156 182.4414,-150 188.4414,-144 194.4414,-144 194.4414,-144 224.4414,-144 224.4414,-144 230.4414,-144 236.4414,-150 236.4414,-156 236.4414,-156 236.4414,-168 236.4414,-168 236.4414,-174 230.4414,-180 224.4414,-180"/>
<text text-anchor="middle" x="209.4414" y="-157.8" font-family="Times,serif" font-size="14.00" fill="#000000">c1</text>
</g>
<!-- t1 -->
<g id="node8" class="node">
<title>t1</title>
<path fill="#7fff00" stroke="#000000" d="M219.4414,-108C219.4414,-108 189.4414,-108 189.4414,-108 183.4414,-108 177.4414,-102 177.4414,-96 177.4414,-96 177.4414,-84 177.4414,-84 177.4414,-78 183.4414,-72 189.4414,-72 189.4414,-72 219.4414,-72 219.4414,-72 225.4414,-72 231.4414,-78 231.4414,-84 231.4414,-84 231.4414,-96 231.4414,-96 231.4414,-102 225.4414,-108 219.4414,-108"/>
<text text-anchor="middle" x="204.4414" y="-85.8" font-family="Times,serif" font-size="14.00" fill="#000000">t1</text>
</g>
<!-- c1&#45;&gt;t1 -->
<g id="edge3" class="edge">
<title>c1&#45;&gt;t1</title>
<path fill="none" stroke="#000000" d="M208.1797,-143.8314C207.6449,-136.131 207.0091,-126.9743 206.4148,-118.4166"/>
<polygon fill="#000000" stroke="#000000" points="209.9046,-118.1467 205.7201,-108.4133 202.9214,-118.6317 209.9046,-118.1467"/>
</g>
<!-- c2 -->
<g id="node5" class="node">
<title>c2</title>
<path fill="#ffff00" stroke="#000000" d="M186.4414,-252C186.4414,-252 156.4414,-252 156.4414,-252 150.4414,-252 144.4414,-246 144.4414,-240 144.4414,-240 144.4414,-228 144.4414,-228 144.4414,-222 150.4414,-216 156.4414,-216 156.4414,-216 186.4414,-216 186.4414,-216 192.4414,-216 198.4414,-222 198.4414,-228 198.4414,-228 198.4414,-240 198.4414,-240 198.4414,-246 192.4414,-252 186.4414,-252"/>
<text text-anchor="middle" x="171.4414" y="-229.8" font-family="Times,serif" font-size="14.00" fill="#000000">c2</text>
</g>
<!-- c2&#45;&gt;c1 -->
<g id="edge13" class="edge">
<title>c2&#45;&gt;c1</title>
<path fill="none" stroke="#000000" d="M181.0304,-215.8314C185.2732,-207.7925 190.3535,-198.1666 195.0374,-189.2918"/>
<polygon fill="#000000" stroke="#000000" points="198.151,-190.8908 199.7233,-180.4133 191.9603,-187.6235 198.151,-190.8908"/>
</g>
<!-- t2 -->
<g id="node9" class="node">
<title>t2</title>
<path fill="#7fff00" stroke="#000000" d="M147.4414,-108C147.4414,-108 117.4414,-108 117.4414,-108 111.4414,-108 105.4414,-102 105.4414,-96 105.4414,-96 105.4414,-84 105.4414,-84 105.4414,-78 111.4414,-72 117.4414,-72 117.4414,-72 147.4414,-72 147.4414,-72 153.4414,-72 159.4414,-78 159.4414,-84 159.4414,-84 159.4414,-96 159.4414,-96 159.4414,-102 153.4414,-108 147.4414,-108"/>
<text text-anchor="middle" x="132.4414" y="-85.8" font-family="Times,serif" font-size="14.00" fill="#000000">t2</text>
</g>
<!-- c2&#45;&gt;t2 -->
<g id="edge14" class="edge">
<title>c2&#45;&gt;t2</title>
<path fill="none" stroke="#000000" d="M166.502,-215.7623C159.8207,-191.0928 147.8409,-146.8598 140.0174,-117.9731"/>
<polygon fill="#000000" stroke="#000000" points="143.3332,-116.8269 137.3407,-108.0896 136.5766,-118.6569 143.3332,-116.8269"/>
</g>
<!-- c3&#45;&gt;c1 -->
<g id="edge15" class="edge">
<title>c3&#45;&gt;c1</title>
<path fill="none" stroke="#000000" d="M234.8618,-215.8314C231.1056,-207.8771 226.6157,-198.369 222.4617,-189.5723"/>
<polygon fill="#000000" stroke="#000000" points="225.5716,-187.9612 218.1366,-180.4133 219.2418,-190.9503 225.5716,-187.9612"/>
</g>
<!-- t3 -->
<g id="node10" class="node">
<title>t3</title>
<path fill="#7fff00" stroke="#000000" d="M291.4414,-108C291.4414,-108 261.4414,-108 261.4414,-108 255.4414,-108 249.4414,-102 249.4414,-96 249.4414,-96 249.4414,-84 249.4414,-84 249.4414,-78 255.4414,-72 261.4414,-72 261.4414,-72 291.4414,-72 291.4414,-72 297.4414,-72 303.4414,-78 303.4414,-84 303.4414,-84 303.4414,-96 303.4414,-96 303.4414,-102 297.4414,-108 291.4414,-108"/>
<text text-anchor="middle" x="276.4414" y="-85.8" font-family="Times,serif" font-size="14.00" fill="#000000">t3</text>
</g>
<!-- c3&#45;&gt;t3 -->
<g id="edge16" class="edge">
<title>c3&#45;&gt;t3</title>
<path fill="none" stroke="#000000" d="M247.6209,-215.7623C253.2743,-191.0928 263.411,-146.8598 270.0309,-117.9731"/>
<polygon fill="#000000" stroke="#000000" points="273.4736,-118.6188 272.2959,-108.0896 266.6505,-117.0551 273.4736,-118.6188"/>
</g>
<!-- c4&#45;&gt;c2 -->
<g id="edge18" class="edge">
<title>c4&#45;&gt;c2</title>
<path fill="none" stroke="#ff0000" d="M171.4414,-287.8314C171.4414,-280.131 171.4414,-270.9743 171.4414,-262.4166"/>
<polygon fill="#ff0000" stroke="#ff0000" points="174.9415,-262.4132 171.4414,-252.4133 167.9415,-262.4133 174.9415,-262.4132"/>
</g>
<!-- c4&#45;&gt;c3 -->
<g id="edge19" class="edge">
<title>c4&#45;&gt;c3</title>
<path fill="none" stroke="#ff0000" d="M189.61,-287.8314C198.1567,-279.2848 208.4971,-268.9443 217.8216,-259.6198"/>
<polygon fill="#ff0000" stroke="#ff0000" points="220.4319,-261.9592 225.0281,-252.4133 215.4822,-257.0095 220.4319,-261.9592"/>
</g>
<!-- c4&#45;&gt;t2 -->
<g id="edge20" class="edge">
<title>c4&#45;&gt;t2</title>
<path fill="none" stroke="#ff0000" d="M155.5509,-287.8862C147.9149,-277.9979 139.5465,-265.1189 135.4414,-252 121.3279,-206.8963 124.4471,-151.2199 128.2588,-118.2744"/>
<polygon fill="#ff0000" stroke="#ff0000" points="131.7731,-118.381 129.5541,-108.0212 124.8283,-117.5036 131.7731,-118.381"/>
</g>
<!-- b1 -->
<g id="node11" class="node">
<title>b1</title>
<path fill="#00ffff" stroke="#000000" d="M147.4414,-36C147.4414,-36 117.4414,-36 117.4414,-36 111.4414,-36 105.4414,-30 105.4414,-24 105.4414,-24 105.4414,-12 105.4414,-12 105.4414,-6 111.4414,0 117.4414,0 117.4414,0 147.4414,0 147.4414,0 153.4414,0 159.4414,-6 159.4414,-12 159.4414,-12 159.4414,-24 159.4414,-24 159.4414,-30 153.4414,-36 147.4414,-36"/>
<text text-anchor="middle" x="132.4414" y="-13.8" font-family="Times,serif" font-size="14.00" fill="#000000">b1</text>
</g>
<!-- t1&#45;&gt;b1 -->
<g id="edge4" class="edge">
<title>t1&#45;&gt;b1</title>
<path fill="none" stroke="#000000" d="M186.2728,-71.8314C177.7262,-63.2848 167.3857,-52.9443 158.0612,-43.6198"/>
<polygon fill="#000000" stroke="#000000" points="160.4007,-41.0095 150.8547,-36.4133 155.4509,-45.9592 160.4007,-41.0095"/>
</g>
<!-- b2 -->
<g id="node12" class="node">
<title>b2</title>
<path fill="#00ffff" stroke="#000000" d="M219.4414,-36C219.4414,-36 189.4414,-36 189.4414,-36 183.4414,-36 177.4414,-30 177.4414,-24 177.4414,-24 177.4414,-12 177.4414,-12 177.4414,-6 183.4414,0 189.4414,0 189.4414,0 219.4414,0 219.4414,0 225.4414,0 231.4414,-6 231.4414,-12 231.4414,-12 231.4414,-24 231.4414,-24 231.4414,-30 225.4414,-36 219.4414,-36"/>
<text text-anchor="middle" x="204.4414" y="-13.8" font-family="Times,serif" font-size="14.00" fill="#000000">b2</text>
</g>
<!-- t1&#45;&gt;b2 -->
<g id="edge5" class="edge">
<title>t1&#45;&gt;b2</title>
<path fill="none" stroke="#000000" d="M204.4414,-71.8314C204.4414,-64.131 204.4414,-54.9743 204.4414,-46.4166"/>
<polygon fill="#000000" stroke="#000000" points="207.9415,-46.4132 204.4414,-36.4133 200.9415,-46.4133 207.9415,-46.4132"/>
</g>
<!-- b3 -->
<g id="node13" class="node">
<title>b3</title>
<path fill="#00ffff" stroke="#000000" d="M291.4414,-36C291.4414,-36 261.4414,-36 261.4414,-36 255.4414,-36 249.4414,-30 249.4414,-24 249.4414,-24 249.4414,-12 249.4414,-12 249.4414,-6 255.4414,0 261.4414,0 261.4414,0 291.4414,0 291.4414,0 297.4414,0 303.4414,-6 303.4414,-12 303.4414,-12 303.4414,-24 303.4414,-24 303.4414,-30 297.4414,-36 291.4414,-36"/>
<text text-anchor="middle" x="276.4414" y="-13.8" font-family="Times,serif" font-size="14.00" fill="#000000">b3</text>
</g>
<!-- t1&#45;&gt;b3 -->
<g id="edge6" class="edge">
<title>t1&#45;&gt;b3</title>
<path fill="none" stroke="#000000" d="M222.61,-71.8314C231.1567,-63.2848 241.4971,-52.9443 250.8216,-43.6198"/>
<polygon fill="#000000" stroke="#000000" points="253.4319,-45.9592 258.0281,-36.4133 248.4822,-41.0095 253.4319,-45.9592"/>
</g>
<!-- t2&#45;&gt;b1 -->
<g id="edge7" class="edge">
<title>t2&#45;&gt;b1</title>
<path fill="none" stroke="#000000" d="M132.4414,-71.8314C132.4414,-64.131 132.4414,-54.9743 132.4414,-46.4166"/>
<polygon fill="#000000" stroke="#000000" points="135.9415,-46.4132 132.4414,-36.4133 128.9415,-46.4133 135.9415,-46.4132"/>
</g>
<!-- t2&#45;&gt;b2 -->
<g id="edge8" class="edge">
<title>t2&#45;&gt;b2</title>
<path fill="none" stroke="#000000" d="M150.61,-71.8314C159.1567,-63.2848 169.4971,-52.9443 178.8216,-43.6198"/>
<polygon fill="#000000" stroke="#000000" points="181.4319,-45.9592 186.0281,-36.4133 176.4822,-41.0095 181.4319,-45.9592"/>
</g>
<!-- b4 -->
<g id="node14" class="node">
<title>b4</title>
<path fill="#00ffff" stroke="#000000" d="M75.4414,-36C75.4414,-36 45.4414,-36 45.4414,-36 39.4414,-36 33.4414,-30 33.4414,-24 33.4414,-24 33.4414,-12 33.4414,-12 33.4414,-6 39.4414,0 45.4414,0 45.4414,0 75.4414,0 75.4414,0 81.4414,0 87.4414,-6 87.4414,-12 87.4414,-12 87.4414,-24 87.4414,-24 87.4414,-30 81.4414,-36 75.4414,-36"/>
<text text-anchor="middle" x="60.4414" y="-13.8" font-family="Times,serif" font-size="14.00" fill="#000000">b4</text>
</g>
<!-- t2&#45;&gt;b4 -->
<g id="edge9" class="edge">
<title>t2&#45;&gt;b4</title>
<path fill="none" stroke="#000000" d="M114.2728,-71.8314C105.7262,-63.2848 95.3857,-52.9443 86.0612,-43.6198"/>
<polygon fill="#000000" stroke="#000000" points="88.4007,-41.0095 78.8547,-36.4133 83.4509,-45.9592 88.4007,-41.0095"/>
</g>
<!-- t3&#45;&gt;b2 -->
<g id="edge10" class="edge">
<title>t3&#45;&gt;b2</title>
<path fill="none" stroke="#000000" d="M258.2728,-71.8314C249.7262,-63.2848 239.3857,-52.9443 230.0612,-43.6198"/>
<polygon fill="#000000" stroke="#000000" points="232.4007,-41.0095 222.8547,-36.4133 227.4509,-45.9592 232.4007,-41.0095"/>
</g>
<!-- t3&#45;&gt;b3 -->
<g id="edge11" class="edge">
<title>t3&#45;&gt;b3</title>
<path fill="none" stroke="#000000" d="M276.4414,-71.8314C276.4414,-64.131 276.4414,-54.9743 276.4414,-46.4166"/>
<polygon fill="#000000" stroke="#000000" points="279.9415,-46.4132 276.4414,-36.4133 272.9415,-46.4133 279.9415,-46.4132"/>
</g>
<!-- b5 -->
<g id="node15" class="node">
<title>b5</title>
<path fill="#00ffff" stroke="#000000" d="M363.4414,-36C363.4414,-36 333.4414,-36 333.4414,-36 327.4414,-36 321.4414,-30 321.4414,-24 321.4414,-24 321.4414,-12 321.4414,-12 321.4414,-6 327.4414,0 333.4414,0 333.4414,0 363.4414,0 363.4414,0 369.4414,0 375.4414,-6 375.4414,-12 375.4414,-12 375.4414,-24 375.4414,-24 375.4414,-30 369.4414,-36 363.4414,-36"/>
<text text-anchor="middle" x="348.4414" y="-13.8" font-family="Times,serif" font-size="14.00" fill="#000000">b5</text>
</g>
<!-- t3&#45;&gt;b5 -->
<g id="edge12" class="edge">
<title>t3&#45;&gt;b5</title>
<path fill="none" stroke="#000000" d="M294.61,-71.8314C303.1567,-63.2848 313.4971,-52.9443 322.8216,-43.6198"/>
<polygon fill="#000000" stroke="#000000" points="325.4319,-45.9592 330.0281,-36.4133 320.4822,-41.0095 325.4319,-45.9592"/>
</g>
</g>
</svg>
