<?xml version="1.0" encoding="UTF-8" standalone="no"?>
<!DOCTYPE svg PUBLIC "-//W3C//DTD SVG 1.1//EN"
 "http://www.w3.org/Graphics/SVG/1.1/DTD/svg11.dtd">
<!-- Generated by graphviz version 2.40.1 (20161225.0304)
 -->
<!-- Title: merge_start_dag Pages: 1 -->
<svg width="494pt" height="332pt"
 viewBox="0.00 0.00 494.00 332.00" xmlns="http://www.w3.org/2000/svg" xmlns:xlink="http://www.w3.org/1999/xlink">
<g id="graph0" class="graph" transform="scale(1 1) rotate(0) translate(4 328)">
<title>merge_start_dag</title>
<!-- HEAD -->
<g id="node1" class="node">
<title>HEAD</title>
<path fill="#ffffff" stroke="#000000" d="M114.3829,-324C114.3829,-324 83.6171,-324 83.6171,-324 77.6171,-324 71.6171,-318 71.6171,-312 71.6171,-312 71.6171,-300 71.6171,-300 71.6171,-294 77.6171,-288 83.6171,-288 83.6171,-288 114.3829,-288 114.3829,-288 120.3829,-288 126.3829,-294 126.3829,-300 126.3829,-300 126.3829,-312 126.3829,-312 126.3829,-318 120.3829,-324 114.3829,-324"/>
<text text-anchor="middle" x="99" y="-301.8" font-family="Times,serif" font-size="14.00" fill="#000000">HEAD</text>
</g>
<!-- BR1 -->
<g id="node2" class="node">
<title>BR1</title>
<path fill="#ffffff" stroke="#000000" d="M186,-324C186,-324 156,-324 156,-324 150,-324 144,-318 144,-312 144,-312 144,-300 144,-300 144,-294 150,-288 156,-288 156,-288 186,-288 186,-288 192,-288 198,-294 198,-300 198,-300 198,-312 198,-312 198,-318 192,-324 186,-324"/>
<text text-anchor="middle" x="171" y="-301.8" font-family="Times,serif" font-size="14.00" fill="#000000">BR1</text>
</g>
<!-- HEAD&#45;&gt;BR1 -->
<g id="edge1" class="edge">
<title>HEAD&#45;&gt;BR1</title>
<path fill="none" stroke="#000000" d="M126.5625,-306C129.0035,-306 131.4445,-306 133.8856,-306"/>
<polygon fill="#000000" stroke="#000000" points="133.9209,-309.5001 143.9209,-306 133.9209,-302.5001 133.9209,-309.5001"/>
</g>
<!-- c4 -->
<g id="node7" class="node">
<title>c4</title>
<path fill="#ffff00" stroke="#000000" d="M258,-324C258,-324 228,-324 228,-324 222,-324 216,-318 216,-312 216,-312 216,-300 216,-300 216,-294 222,-288 228,-288 228,-288 258,-288 258,-288 264,-288 270,-294 270,-300 270,-300 270,-312 270,-312 270,-318 264,-324 258,-324"/>
<text text-anchor="middle" x="243" y="-301.8" font-family="Times,serif" font-size="14.00" fill="#000000">c4</text>
</g>
<!-- BR1&#45;&gt;c4 -->
<g id="edge18" class="edge">
<title>BR1&#45;&gt;c4</title>
<path fill="none" stroke="#ff0000" d="M198.2813,-306C200.7377,-306 203.1942,-306 205.6507,-306"/>
<polygon fill="#ff0000" stroke="#ff0000" points="205.7495,-309.5001 215.7495,-306 205.7495,-302.5001 205.7495,-309.5001"/>
</g>
<!-- BR2 -->
<g id="node3" class="node">
<title>BR2</title>
<path fill="#ffffff" stroke="#000000" d="M330,-324C330,-324 300,-324 300,-324 294,-324 288,-318 288,-312 288,-312 288,-300 288,-300 288,-294 294,-288 300,-288 300,-288 330,-288 330,-288 336,-288 342,-294 342,-300 342,-300 342,-312 342,-312 342,-318 336,-324 330,-324"/>
<text text-anchor="middle" x="315" y="-301.8" font-family="Times,serif" font-size="14.00" fill="#000000">BR2</text>
</g>
<!-- c3 -->
<g id="node6" class="node">
<title>c3</title>
<path fill="#ffff00" stroke="#000000" d="M258,-252C258,-252 228,-252 228,-252 222,-252 216,-246 216,-240 216,-240 216,-228 216,-228 216,-222 222,-216 228,-216 228,-216 258,-216 258,-216 264,-216 270,-222 270,-228 270,-228 270,-240 270,-240 270,-246 264,-252 258,-252"/>
<text text-anchor="middle" x="243" y="-229.8" font-family="Times,serif" font-size="14.00" fill="#000000">c3</text>
</g>
<!-- BR2&#45;&gt;c3 -->
<g id="edge2" class="edge">
<title>BR2&#45;&gt;c3</title>
<path fill="none" stroke="#000000" d="M296.8314,-287.8314C288.2848,-279.2848 277.9443,-268.9443 268.6198,-259.6198"/>
<polygon fill="#000000" stroke="#000000" points="270.9592,-257.0095 261.4133,-252.4133 266.0095,-261.9592 270.9592,-257.0095"/>
</g>
<!-- c1 -->
<g id="node4" class="node">
<title>c1</title>
<path fill="#ffff00" stroke="#000000" d="M186,-180C186,-180 156,-180 156,-180 150,-180 144,-174 144,-168 144,-168 144,-156 144,-156 144,-150 150,-144 156,-144 156,-144 186,-144 186,-144 192,-144 198,-150 198,-156 198,-156 198,-168 198,-168 198,-174 192,-180 186,-180"/>
<text text-anchor="middle" x="171" y="-157.8" font-family="Times,serif" font-size="14.00" fill="#000000">c1</text>
</g>
<!-- t1 -->
<g id="node8" class="node">
<title>t1</title>
<path fill="#7fff00" stroke="#000000" d="M186,-108C186,-108 156,-108 156,-108 150,-108 144,-102 144,-96 144,-96 144,-84 144,-84 144,-78 150,-72 156,-72 156,-72 186,-72 186,-72 192,-72 198,-78 198,-84 198,-84 198,-96 198,-96 198,-102 192,-108 186,-108"/>
<text text-anchor="middle" x="171" y="-85.8" font-family="Times,serif" font-size="14.00" fill="#000000">t1</text>
</g>
<!-- c1&#45;&gt;t1 -->
<g id="edge3" class="edge">
<title>c1&#45;&gt;t1</title>
<path fill="none" stroke="#000000" d="M171,-143.8314C171,-136.131 171,-126.9743 171,-118.4166"/>
<polygon fill="#000000" stroke="#000000" points="174.5001,-118.4132 171,-108.4133 167.5001,-118.4133 174.5001,-118.4132"/>
</g>
<!-- c2 -->
<g id="node5" class="node">
<title>c2</title>
<path fill="#ffff00" stroke="#000000" d="M186,-252C186,-252 156,-252 156,-252 150,-252 144,-246 144,-240 144,-240 144,-228 144,-228 144,-222 150,-216 156,-216 156,-216 186,-216 186,-216 192,-216 198,-222 198,-228 198,-228 198,-240 198,-240 198,-246 192,-252 186,-252"/>
<text text-anchor="middle" x="171" y="-229.8" font-family="Times,serif" font-size="14.00" fill="#000000">c2</text>
</g>
<!-- c2&#45;&gt;c1 -->
<g id="edge14" class="edge">
<title>c2&#45;&gt;c1</title>
<path fill="none" stroke="#000000" d="M171,-215.8314C171,-208.131 171,-198.9743 171,-190.4166"/>
<polygon fill="#000000" stroke="#000000" points="174.5001,-190.4132 171,-180.4133 167.5001,-190.4133 174.5001,-190.4132"/>
</g>
<!-- t2 -->
<g id="node9" class="node">
<title>t2</title>
<path fill="#7fff00" stroke="#000000" d="M114,-108C114,-108 84,-108 84,-108 78,-108 72,-102 72,-96 72,-96 72,-84 72,-84 72,-78 78,-72 84,-72 84,-72 114,-72 114,-72 120,-72 126,-78 126,-84 126,-84 126,-96 126,-96 126,-102 120,-108 114,-108"/>
<text text-anchor="middle" x="99" y="-85.8" font-family="Times,serif" font-size="14.00" fill="#000000">t2</text>
</g>
<!-- c2&#45;&gt;t2 -->
<g id="edge15" class="edge">
<title>c2&#45;&gt;t2</title>
<path fill="none" stroke="#000000" d="M157.3445,-215.5973C150.154,-205.4209 141.5044,-192.3651 135,-180 124.4065,-159.8615 114.9605,-135.8887 108.405,-117.7501"/>
<polygon fill="#000000" stroke="#000000" points="111.6176,-116.3365 104.9822,-108.0768 105.0185,-118.6716 111.6176,-116.3365"/>
</g>
<!-- c3&#45;&gt;c1 -->
<g id="edge16" class="edge">
<title>c3&#45;&gt;c1</title>
<path fill="none" stroke="#000000" d="M224.8314,-215.8314C216.2848,-207.2848 205.9443,-196.9443 196.6198,-187.6198"/>
<polygon fill="#000000" stroke="#000000" points="198.9592,-185.0095 189.4133,-180.4133 194.0095,-189.9592 198.9592,-185.0095"/>
</g>
<!-- t3 -->
<g id="node10" class="node">
<title>t3</title>
<path fill="#7fff00" stroke="#000000" d="M258,-108C258,-108 228,-108 228,-108 222,-108 216,-102 216,-96 216,-96 216,-84 216,-84 216,-78 222,-72 228,-72 228,-72 258,-72 258,-72 264,-72 270,-78 270,-84 270,-84 270,-96 270,-96 270,-102 264,-108 258,-108"/>
<text text-anchor="middle" x="243" y="-85.8" font-family="Times,serif" font-size="14.00" fill="#000000">t3</text>
</g>
<!-- c3&#45;&gt;t3 -->
<g id="edge17" class="edge">
<title>c3&#45;&gt;t3</title>
<path fill="none" stroke="#000000" d="M243,-215.7623C243,-191.201 243,-147.2474 243,-118.3541"/>
<polygon fill="#000000" stroke="#000000" points="246.5001,-118.0896 243,-108.0896 239.5001,-118.0897 246.5001,-118.0896"/>
</g>
<!-- c4&#45;&gt;c2 -->
<g id="edge19" class="edge">
<title>c4&#45;&gt;c2</title>
<path fill="none" stroke="#ff0000" d="M224.8314,-287.8314C216.2848,-279.2848 205.9443,-268.9443 196.6198,-259.6198"/>
<polygon fill="#ff0000" stroke="#ff0000" points="198.9592,-257.0095 189.4133,-252.4133 194.0095,-261.9592 198.9592,-257.0095"/>
</g>
<!-- c4&#45;&gt;c3 -->
<g id="edge20" class="edge">
<title>c4&#45;&gt;c3</title>
<path fill="none" stroke="#ff0000" d="M243,-287.8314C243,-280.131 243,-270.9743 243,-262.4166"/>
<polygon fill="#ff0000" stroke="#ff0000" points="246.5001,-262.4132 243,-252.4133 239.5001,-262.4133 246.5001,-262.4132"/>
</g>
<!-- t4 -->
<g id="node11" class="node">
<title>t4</title>
<path fill="#7fff00" stroke="#000000" d="M366,-108C366,-108 336,-108 336,-108 330,-108 324,-102 324,-96 324,-96 324,-84 324,-84 324,-78 330,-72 336,-72 336,-72 366,-72 366,-72 372,-72 378,-78 378,-84 378,-84 378,-96 378,-96 378,-102 372,-108 366,-108"/>
<text text-anchor="middle" x="351" y="-85.8" font-family="Times,serif" font-size="14.00" fill="#000000">t4</text>
</g>
<!-- c4&#45;&gt;t4 -->
<g id="edge21" class="edge">
<title>c4&#45;&gt;t4</title>
<path fill="none" stroke="#ff0000" d="M256.1263,-287.9893C263.327,-277.7134 272.1549,-264.4377 279,-252 304.014,-206.549 327.303,-150.7166 340.2938,-117.8795"/>
<polygon fill="#ff0000" stroke="#ff0000" points="343.5936,-119.0514 343.9853,-108.4638 337.0766,-116.4963 343.5936,-119.0514"/>
</g>
<!-- b1 -->
<g id="node12" class="node">
<title>b1</title>
<path fill="#00ffff" stroke="#000000" d="M114,-36C114,-36 84,-36 84,-36 78,-36 72,-30 72,-24 72,-24 72,-12 72,-12 72,-6 78,0 84,0 84,0 114,0 114,0 120,0 126,-6 126,-12 126,-12 126,-24 126,-24 126,-30 120,-36 114,-36"/>
<text text-anchor="middle" x="99" y="-13.8" font-family="Times,serif" font-size="14.00" fill="#000000">b1</text>
</g>
<!-- t1&#45;&gt;b1 -->
<g id="edge4" class="edge">
<title>t1&#45;&gt;b1</title>
<path fill="none" stroke="#000000" d="M152.8314,-71.8314C144.2848,-63.2848 133.9443,-52.9443 124.6198,-43.6198"/>
<polygon fill="#000000" stroke="#000000" points="126.9592,-41.0095 117.4133,-36.4133 122.0095,-45.9592 126.9592,-41.0095"/>
</g>
<!-- b2 -->
<g id="node13" class="node">
<title>b2</title>
<path fill="#00ffff" stroke="#000000" d="M186,-36C186,-36 156,-36 156,-36 150,-36 144,-30 144,-24 144,-24 144,-12 144,-12 144,-6 150,0 156,0 156,0 186,0 186,0 192,0 198,-6 198,-12 198,-12 198,-24 198,-24 198,-30 192,-36 186,-36"/>
<text text-anchor="middle" x="171" y="-13.8" font-family="Times,serif" font-size="14.00" fill="#000000">b2</text>
</g>
<!-- t1&#45;&gt;b2 -->
<g id="edge5" class="edge">
<title>t1&#45;&gt;b2</title>
<path fill="none" stroke="#000000" d="M171,-71.8314C171,-64.131 171,-54.9743 171,-46.4166"/>
<polygon fill="#000000" stroke="#000000" points="174.5001,-46.4132 171,-36.4133 167.5001,-46.4133 174.5001,-46.4132"/>
</g>
<!-- b3 -->
<g id="node14" class="node">
<title>b3</title>
<path fill="#00ffff" stroke="#000000" d="M258,-36C258,-36 228,-36 228,-36 222,-36 216,-30 216,-24 216,-24 216,-12 216,-12 216,-6 222,0 228,0 228,0 258,0 258,0 264,0 270,-6 270,-12 270,-12 270,-24 270,-24 270,-30 264,-36 258,-36"/>
<text text-anchor="middle" x="243" y="-13.8" font-family="Times,serif" font-size="14.00" fill="#000000">b3</text>
</g>
<!-- t1&#45;&gt;b3 -->
<g id="edge6" class="edge">
<title>t1&#45;&gt;b3</title>
<path fill="none" stroke="#000000" d="M189.1686,-71.8314C197.7152,-63.2848 208.0557,-52.9443 217.3802,-43.6198"/>
<polygon fill="#000000" stroke="#000000" points="219.9905,-45.9592 224.5867,-36.4133 215.0408,-41.0095 219.9905,-45.9592"/>
</g>
<!-- t2&#45;&gt;b1 -->
<g id="edge7" class="edge">
<title>t2&#45;&gt;b1</title>
<path fill="none" stroke="#000000" d="M99,-71.8314C99,-64.131 99,-54.9743 99,-46.4166"/>
<polygon fill="#000000" stroke="#000000" points="102.5001,-46.4132 99,-36.4133 95.5001,-46.4133 102.5001,-46.4132"/>
</g>
<!-- t2&#45;&gt;b2 -->
<g id="edge8" class="edge">
<title>t2&#45;&gt;b2</title>
<path fill="none" stroke="#000000" d="M117.1686,-71.8314C125.7152,-63.2848 136.0557,-52.9443 145.3802,-43.6198"/>
<polygon fill="#000000" stroke="#000000" points="147.9905,-45.9592 152.5867,-36.4133 143.0408,-41.0095 147.9905,-45.9592"/>
</g>
<!-- b4 -->
<g id="node15" class="node">
<title>b4</title>
<path fill="#00ffff" stroke="#000000" d="M42,-36C42,-36 12,-36 12,-36 6,-36 0,-30 0,-24 0,-24 0,-12 0,-12 0,-6 6,0 12,0 12,0 42,0 42,0 48,0 54,-6 54,-12 54,-12 54,-24 54,-24 54,-30 48,-36 42,-36"/>
<text text-anchor="middle" x="27" y="-13.8" font-family="Times,serif" font-size="14.00" fill="#000000">b4</text>
</g>
<!-- t2&#45;&gt;b4 -->
<g id="edge9" class="edge">
<title>t2&#45;&gt;b4</title>
<path fill="none" stroke="#000000" d="M80.8314,-71.8314C72.2848,-63.2848 61.9443,-52.9443 52.6198,-43.6198"/>
<polygon fill="#000000" stroke="#000000" points="54.9592,-41.0095 45.4133,-36.4133 50.0095,-45.9592 54.9592,-41.0095"/>
</g>
<!-- t3&#45;&gt;b2 -->
<g id="edge10" class="edge">
<title>t3&#45;&gt;b2</title>
<path fill="none" stroke="#000000" d="M224.8314,-71.8314C216.2848,-63.2848 205.9443,-52.9443 196.6198,-43.6198"/>
<polygon fill="#000000" stroke="#000000" points="198.9592,-41.0095 189.4133,-36.4133 194.0095,-45.9592 198.9592,-41.0095"/>
</g>
<!-- t3&#45;&gt;b3 -->
<g id="edge11" class="edge">
<title>t3&#45;&gt;b3</title>
<path fill="none" stroke="#000000" d="M243,-71.8314C243,-64.131 243,-54.9743 243,-46.4166"/>
<polygon fill="#000000" stroke="#000000" points="246.5001,-46.4132 243,-36.4133 239.5001,-46.4133 246.5001,-46.4132"/>
</g>
<!-- b5 -->
<g id="node16" class="node">
<title>b5</title>
<path fill="#00ffff" stroke="#000000" d="M330,-36C330,-36 300,-36 300,-36 294,-36 288,-30 288,-24 288,-24 288,-12 288,-12 288,-6 294,0 300,0 300,0 330,0 330,0 336,0 342,-6 342,-12 342,-12 342,-24 342,-24 342,-30 336,-36 330,-36"/>
<text text-anchor="middle" x="315" y="-13.8" font-family="Times,serif" font-size="14.00" fill="#000000">b5</text>
</g>
<!-- t3&#45;&gt;b5 -->
<g id="edge12" class="edge">
<title>t3&#45;&gt;b5</title>
<path fill="none" stroke="#000000" d="M261.1686,-71.8314C269.7152,-63.2848 280.0557,-52.9443 289.3802,-43.6198"/>
<polygon fill="#000000" stroke="#000000" points="291.9905,-45.9592 296.5867,-36.4133 287.0408,-41.0095 291.9905,-45.9592"/>
</g>
<!-- t4&#45;&gt;b2 -->
<g id="edge13" class="edge">
<title>t4&#45;&gt;b2</title>
<path fill="none" stroke="#000000" d="M323.8581,-80.7789C296.5374,-71.2904 253.0799,-55.6358 207.7645,-36.142"/>
<polygon fill="#000000" stroke="#000000" points="208.943,-32.8379 198.3769,-32.0591 206.1512,-39.2571 208.943,-32.8379"/>
</g>
<!-- b6 -->
<g id="node17" class="node">
<title>b6</title>
<path fill="#00ffff" stroke="#000000" d="M474,-36C474,-36 444,-36 444,-36 438,-36 432,-30 432,-24 432,-24 432,-12 432,-12 432,-6 438,0 444,0 444,0 474,0 474,0 480,0 486,-6 486,-12 486,-12 486,-24 486,-24 486,-30 480,-36 474,-36"/>
<text text-anchor="middle" x="459" y="-13.8" font-family="Times,serif" font-size="14.00" fill="#000000">b6</text>
</g>
<!-- t4&#45;&gt;b6 -->
<g id="edge22" class="edge">
<title>t4&#45;&gt;b6</title>
<path fill="none" stroke="#ff0000" d="M378.253,-71.8314C391.9389,-62.7074 408.6915,-51.539 423.3827,-41.7449"/>
<polygon fill="#ff0000" stroke="#ff0000" points="425.3767,-44.6221 431.7558,-36.1628 421.4938,-38.7977 425.3767,-44.6221"/>
</g>
<!-- b7 -->
<g id="node18" class="node">
<title>b7</title>
<path fill="#00ffff" stroke="#000000" d="M402,-36C402,-36 372,-36 372,-36 366,-36 360,-30 360,-24 360,-24 360,-12 360,-12 360,-6 366,0 372,0 372,0 402,0 402,0 408,0 414,-6 414,-12 414,-12 414,-24 414,-24 414,-30 408,-36 402,-36"/>
<text text-anchor="middle" x="387" y="-13.8" font-family="Times,serif" font-size="14.00" fill="#000000">b7</text>
</g>
<!-- t4&#45;&gt;b7 -->
<g id="edge23" class="edge">
<title>t4&#45;&gt;b7</title>
<path fill="none" stroke="#ff0000" d="M360.0843,-71.8314C364.0615,-63.8771 368.8155,-54.369 373.2139,-45.5723"/>
<polygon fill="#ff0000" stroke="#ff0000" points="376.4517,-46.9228 377.7934,-36.4133 370.1907,-43.7923 376.4517,-46.9228"/>
</g>
</g>
</svg>
