<?xml version="1.0" encoding="UTF-8" standalone="no"?>
<!DOCTYPE svg PUBLIC "-//W3C//DTD SVG 1.1//EN"
 "http://www.w3.org/Graphics/SVG/1.1/DTD/svg11.dtd">
<!-- Generated by graphviz version 2.38.0 (20140413.2041)
 -->
<!-- Title: mergebranches2 Pages: 1 -->
<svg width="263pt" height="281pt"
 viewBox="0.00 0.00 263.24 280.80" xmlns="http://www.w3.org/2000/svg" xmlns:xlink="http://www.w3.org/1999/xlink">
<g id="graph0" class="graph" transform="scale(1 1) rotate(0) translate(14.4 266.4)">
<title>mergebranches2</title>
<!-- b1 -->
<g id="node1" class="node"><title>b1</title>
<path fill="white" stroke="black" d="M78.4414,-180C78.4414,-180 48.4414,-180 48.4414,-180 42.4414,-180 36.4414,-174 36.4414,-168 36.4414,-168 36.4414,-156 36.4414,-156 36.4414,-150 42.4414,-144 48.4414,-144 48.4414,-144 78.4414,-144 78.4414,-144 84.4414,-144 90.4414,-150 90.4414,-156 90.4414,-156 90.4414,-168 90.4414,-168 90.4414,-174 84.4414,-180 78.4414,-180"/>
<text text-anchor="middle" x="63.4414" y="-157.8" font-family="Times,serif" font-size="14.00">b1</text>
</g>
<!-- E -->
<g id="node5" class="node"><title>E</title>
<path fill="yellow" stroke="black" d="M150.441,-180C150.441,-180 120.441,-180 120.441,-180 114.441,-180 108.441,-174 108.441,-168 108.441,-168 108.441,-156 108.441,-156 108.441,-150 114.441,-144 120.441,-144 120.441,-144 150.441,-144 150.441,-144 156.441,-144 162.441,-150 162.441,-156 162.441,-156 162.441,-168 162.441,-168 162.441,-174 156.441,-180 150.441,-180"/>
<text text-anchor="middle" x="135.441" y="-157.8" font-family="Times,serif" font-size="14.00">E</text>
</g>
<!-- b1&#45;&gt;E -->
<g id="edge9" class="edge"><title>b1&#45;&gt;E</title>
<path fill="none" stroke="black" d="M90.7227,-162C93.1791,-162 95.6356,-162 98.0921,-162"/>
<polygon fill="black" stroke="black" points="98.191,-165.5 108.191,-162 98.1909,-158.5 98.191,-165.5"/>
</g>
<!-- HEAD -->
<g id="node2" class="node"><title>HEAD</title>
<path fill="white" stroke="black" d="M42.8243,-252C42.8243,-252 12.0585,-252 12.0585,-252 6.05847,-252 0.0584689,-246 0.0584689,-240 0.0584689,-240 0.0584689,-228 0.0584689,-228 0.0584689,-222 6.05847,-216 12.0585,-216 12.0585,-216 42.8243,-216 42.8243,-216 48.8243,-216 54.8243,-222 54.8243,-228 54.8243,-228 54.8243,-240 54.8243,-240 54.8243,-246 48.8243,-252 42.8243,-252"/>
<text text-anchor="middle" x="27.4414" y="-229.8" font-family="Times,serif" font-size="14.00">HEAD</text>
</g>
<!-- b2 -->
<g id="node3" class="node"><title>b2</title>
<path fill="white" stroke="black" d="M114.441,-252C114.441,-252 84.4414,-252 84.4414,-252 78.4414,-252 72.4414,-246 72.4414,-240 72.4414,-240 72.4414,-228 72.4414,-228 72.4414,-222 78.4414,-216 84.4414,-216 84.4414,-216 114.441,-216 114.441,-216 120.441,-216 126.441,-222 126.441,-228 126.441,-228 126.441,-240 126.441,-240 126.441,-246 120.441,-252 114.441,-252"/>
<text text-anchor="middle" x="99.4414" y="-229.8" font-family="Times,serif" font-size="14.00">b2</text>
</g>
<!-- HEAD&#45;&gt;b2 -->
<g id="edge1" class="edge"><title>HEAD&#45;&gt;b2</title>
<path fill="none" stroke="black" d="M55.0039,-234C57.4449,-234 59.886,-234 62.327,-234"/>
<polygon fill="black" stroke="black" points="62.3623,-237.5 72.3623,-234 62.3623,-230.5 62.3623,-237.5"/>
</g>
<!-- F -->
<g id="node4" class="node"><title>F</title>
<path fill="yellow" stroke="black" d="M186.441,-252C186.441,-252 156.441,-252 156.441,-252 150.441,-252 144.441,-246 144.441,-240 144.441,-240 144.441,-228 144.441,-228 144.441,-222 150.441,-216 156.441,-216 156.441,-216 186.441,-216 186.441,-216 192.441,-216 198.441,-222 198.441,-228 198.441,-228 198.441,-240 198.441,-240 198.441,-246 192.441,-252 186.441,-252"/>
<text text-anchor="middle" x="171.441" y="-229.8" font-family="Times,serif" font-size="14.00">F</text>
</g>
<!-- b2&#45;&gt;F -->
<g id="edge8" class="edge"><title>b2&#45;&gt;F</title>
<path fill="none" stroke="red" d="M126.723,-234C129.179,-234 131.636,-234 134.092,-234"/>
<polygon fill="red" stroke="red" points="134.191,-237.5 144.191,-234 134.191,-230.5 134.191,-237.5"/>
</g>
<!-- F&#45;&gt;E -->
<g id="edge2" class="edge"><title>F&#45;&gt;E</title>
<path fill="none" stroke="red" d="M162.543,-215.697C158.445,-207.728 153.493,-198.1 148.949,-189.264"/>
<polygon fill="red" stroke="red" points="151.924,-187.396 144.238,-180.104 145.699,-190.598 151.924,-187.396"/>
</g>
<!-- C -->
<g id="node6" class="node"><title>C</title>
<path fill="yellow" stroke="black" d="M222.441,-180C222.441,-180 192.441,-180 192.441,-180 186.441,-180 180.441,-174 180.441,-168 180.441,-168 180.441,-156 180.441,-156 180.441,-150 186.441,-144 192.441,-144 192.441,-144 222.441,-144 222.441,-144 228.441,-144 234.441,-150 234.441,-156 234.441,-156 234.441,-168 234.441,-168 234.441,-174 228.441,-180 222.441,-180"/>
<text text-anchor="middle" x="207.441" y="-157.8" font-family="Times,serif" font-size="14.00">C</text>
</g>
<!-- F&#45;&gt;C -->
<g id="edge3" class="edge"><title>F&#45;&gt;C</title>
<path fill="none" stroke="red" d="M180.34,-215.697C184.438,-207.728 189.39,-198.1 193.934,-189.264"/>
<polygon fill="red" stroke="red" points="197.184,-190.598 198.645,-180.104 190.959,-187.396 197.184,-190.598"/>
</g>
<!-- D -->
<g id="node7" class="node"><title>D</title>
<path fill="yellow" stroke="black" d="M150.441,-108C150.441,-108 120.441,-108 120.441,-108 114.441,-108 108.441,-102 108.441,-96 108.441,-96 108.441,-84 108.441,-84 108.441,-78 114.441,-72 120.441,-72 120.441,-72 150.441,-72 150.441,-72 156.441,-72 162.441,-78 162.441,-84 162.441,-84 162.441,-96 162.441,-96 162.441,-102 156.441,-108 150.441,-108"/>
<text text-anchor="middle" x="135.441" y="-85.8" font-family="Times,serif" font-size="14.00">D</text>
</g>
<!-- E&#45;&gt;D -->
<g id="edge4" class="edge"><title>E&#45;&gt;D</title>
<path fill="none" stroke="black" d="M135.441,-143.697C135.441,-135.983 135.441,-126.712 135.441,-118.112"/>
<polygon fill="black" stroke="black" points="138.942,-118.104 135.441,-108.104 131.942,-118.104 138.942,-118.104"/>
</g>
<!-- B -->
<g id="node9" class="node"><title>B</title>
<path fill="yellow" stroke="black" d="M222.441,-108C222.441,-108 192.441,-108 192.441,-108 186.441,-108 180.441,-102 180.441,-96 180.441,-96 180.441,-84 180.441,-84 180.441,-78 186.441,-72 192.441,-72 192.441,-72 222.441,-72 222.441,-72 228.441,-72 234.441,-78 234.441,-84 234.441,-84 234.441,-96 234.441,-96 234.441,-102 228.441,-108 222.441,-108"/>
<text text-anchor="middle" x="207.441" y="-85.8" font-family="Times,serif" font-size="14.00">B</text>
</g>
<!-- C&#45;&gt;B -->
<g id="edge6" class="edge"><title>C&#45;&gt;B</title>
<path fill="none" stroke="black" d="M207.441,-143.697C207.441,-135.983 207.441,-126.712 207.441,-118.112"/>
<polygon fill="black" stroke="black" points="210.942,-118.104 207.441,-108.104 203.942,-118.104 210.942,-118.104"/>
</g>
<!-- A -->
<g id="node8" class="node"><title>A</title>
<path fill="yellow" stroke="black" d="M186.441,-36C186.441,-36 156.441,-36 156.441,-36 150.441,-36 144.441,-30 144.441,-24 144.441,-24 144.441,-12 144.441,-12 144.441,-6 150.441,-0 156.441,-0 156.441,-0 186.441,-0 186.441,-0 192.441,-0 198.441,-6 198.441,-12 198.441,-12 198.441,-24 198.441,-24 198.441,-30 192.441,-36 186.441,-36"/>
<text text-anchor="middle" x="171.441" y="-13.8" font-family="Times,serif" font-size="14.00">A</text>
</g>
<!-- D&#45;&gt;A -->
<g id="edge5" class="edge"><title>D&#45;&gt;A</title>
<path fill="none" stroke="black" d="M144.34,-71.6966C148.438,-63.7284 153.39,-54.0995 157.934,-45.2641"/>
<polygon fill="black" stroke="black" points="161.184,-46.598 162.645,-36.1043 154.959,-43.3965 161.184,-46.598"/>
</g>
<!-- B&#45;&gt;A -->
<g id="edge7" class="edge"><title>B&#45;&gt;A</title>
<path fill="none" stroke="black" d="M198.543,-71.6966C194.445,-63.7284 189.493,-54.0995 184.949,-45.2641"/>
<polygon fill="black" stroke="black" points="187.924,-43.3965 180.238,-36.1043 181.699,-46.598 187.924,-43.3965"/>
</g>
</g>
</svg>
