<?xml version="1.0" encoding="UTF-8" standalone="no"?>
<!DOCTYPE svg PUBLIC "-//W3C//DTD SVG 1.1//EN"
 "http://www.w3.org/Graphics/SVG/1.1/DTD/svg11.dtd">
<!-- Generated by graphviz version 2.38.0 (20140413.2041)
 -->
<!-- Title: merge_start_dag Pages: 1 -->
<svg width="399pt" height="260pt"
 viewBox="0.00 0.00 399.44 260.00" xmlns="http://www.w3.org/2000/svg" xmlns:xlink="http://www.w3.org/1999/xlink">
<g id="graph0" class="graph" transform="scale(1 1) rotate(0) translate(4 256)">
<title>merge_start_dag</title>
<!-- HEAD -->
<g id="node1" class="node"><title>HEAD</title>
<path fill="white" stroke="black" d="M42.8243,-252C42.8243,-252 12.0585,-252 12.0585,-252 6.05847,-252 0.0584689,-246 0.0584689,-240 0.0584689,-240 0.0584689,-228 0.0584689,-228 0.0584689,-222 6.05847,-216 12.0585,-216 12.0585,-216 42.8243,-216 42.8243,-216 48.8243,-216 54.8243,-222 54.8243,-228 54.8243,-228 54.8243,-240 54.8243,-240 54.8243,-246 48.8243,-252 42.8243,-252"/>
<text text-anchor="middle" x="27.4414" y="-229.8" font-family="Times,serif" font-size="14.00">HEAD</text>
</g>
<!-- BR1 -->
<g id="node2" class="node"><title>BR1</title>
<path fill="white" stroke="black" d="M114.441,-252C114.441,-252 84.4414,-252 84.4414,-252 78.4414,-252 72.4414,-246 72.4414,-240 72.4414,-240 72.4414,-228 72.4414,-228 72.4414,-222 78.4414,-216 84.4414,-216 84.4414,-216 114.441,-216 114.441,-216 120.441,-216 126.441,-222 126.441,-228 126.441,-228 126.441,-240 126.441,-240 126.441,-246 120.441,-252 114.441,-252"/>
<text text-anchor="middle" x="99.4414" y="-229.8" font-family="Times,serif" font-size="14.00">BR1</text>
</g>
<!-- HEAD&#45;&gt;BR1 -->
<g id="edge1" class="edge"><title>HEAD&#45;&gt;BR1</title>
<path fill="none" stroke="black" d="M55.0039,-234C57.4449,-234 59.886,-234 62.327,-234"/>
<polygon fill="black" stroke="black" points="62.3623,-237.5 72.3623,-234 62.3623,-230.5 62.3623,-237.5"/>
</g>
<!-- c2 -->
<g id="node5" class="node"><title>c2</title>
<path fill="yellow" stroke="black" d="M186.441,-252C186.441,-252 156.441,-252 156.441,-252 150.441,-252 144.441,-246 144.441,-240 144.441,-240 144.441,-228 144.441,-228 144.441,-222 150.441,-216 156.441,-216 156.441,-216 186.441,-216 186.441,-216 192.441,-216 198.441,-222 198.441,-228 198.441,-228 198.441,-240 198.441,-240 198.441,-246 192.441,-252 186.441,-252"/>
<text text-anchor="middle" x="171.441" y="-229.8" font-family="Times,serif" font-size="14.00">c2</text>
</g>
<!-- BR1&#45;&gt;c2 -->
<g id="edge2" class="edge"><title>BR1&#45;&gt;c2</title>
<path fill="none" stroke="black" d="M126.723,-234C129.179,-234 131.636,-234 134.092,-234"/>
<polygon fill="black" stroke="black" points="134.191,-237.5 144.191,-234 134.191,-230.5 134.191,-237.5"/>
</g>
<!-- BR2 -->
<g id="node3" class="node"><title>BR2</title>
<path fill="white" stroke="black" d="M344.441,-252C344.441,-252 314.441,-252 314.441,-252 308.441,-252 302.441,-246 302.441,-240 302.441,-240 302.441,-228 302.441,-228 302.441,-222 308.441,-216 314.441,-216 314.441,-216 344.441,-216 344.441,-216 350.441,-216 356.441,-222 356.441,-228 356.441,-228 356.441,-240 356.441,-240 356.441,-246 350.441,-252 344.441,-252"/>
<text text-anchor="middle" x="329.441" y="-229.8" font-family="Times,serif" font-size="14.00">BR2</text>
</g>
<!-- c3 -->
<g id="node6" class="node"><title>c3</title>
<path fill="yellow" stroke="black" d="M272.441,-252C272.441,-252 242.441,-252 242.441,-252 236.441,-252 230.441,-246 230.441,-240 230.441,-240 230.441,-228 230.441,-228 230.441,-222 236.441,-216 242.441,-216 242.441,-216 272.441,-216 272.441,-216 278.441,-216 284.441,-222 284.441,-228 284.441,-228 284.441,-240 284.441,-240 284.441,-246 278.441,-252 272.441,-252"/>
<text text-anchor="middle" x="257.441" y="-229.8" font-family="Times,serif" font-size="14.00">c3</text>
</g>
<!-- BR2&#45;&gt;c3 -->
<g id="edge3" class="edge"><title>BR2&#45;&gt;c3</title>
<path fill="none" stroke="black" d="M302.191,-234C299.734,-234 297.278,-234 294.821,-234"/>
<polygon fill="black" stroke="black" points="294.723,-230.5 284.723,-234 294.723,-237.5 294.723,-230.5"/>
</g>
<!-- c1 -->
<g id="node4" class="node"><title>c1</title>
<path fill="yellow" stroke="black" d="M235.441,-180C235.441,-180 205.441,-180 205.441,-180 199.441,-180 193.441,-174 193.441,-168 193.441,-168 193.441,-156 193.441,-156 193.441,-150 199.441,-144 205.441,-144 205.441,-144 235.441,-144 235.441,-144 241.441,-144 247.441,-150 247.441,-156 247.441,-156 247.441,-168 247.441,-168 247.441,-174 241.441,-180 235.441,-180"/>
<text text-anchor="middle" x="220.441" y="-157.8" font-family="Times,serif" font-size="14.00">c1</text>
</g>
<!-- t1 -->
<g id="node7" class="node"><title>t1</title>
<path fill="chartreuse" stroke="black" d="M235.441,-108C235.441,-108 205.441,-108 205.441,-108 199.441,-108 193.441,-102 193.441,-96 193.441,-96 193.441,-84 193.441,-84 193.441,-78 199.441,-72 205.441,-72 205.441,-72 235.441,-72 235.441,-72 241.441,-72 247.441,-78 247.441,-84 247.441,-84 247.441,-96 247.441,-96 247.441,-102 241.441,-108 235.441,-108"/>
<text text-anchor="middle" x="220.441" y="-85.8" font-family="Times,serif" font-size="14.00">t1</text>
</g>
<!-- c1&#45;&gt;t1 -->
<g id="edge4" class="edge"><title>c1&#45;&gt;t1</title>
<path fill="none" stroke="black" d="M220.441,-143.697C220.441,-135.983 220.441,-126.712 220.441,-118.112"/>
<polygon fill="black" stroke="black" points="223.942,-118.104 220.441,-108.104 216.942,-118.104 223.942,-118.104"/>
</g>
<!-- c2&#45;&gt;c1 -->
<g id="edge14" class="edge"><title>c2&#45;&gt;c1</title>
<path fill="none" stroke="black" d="M183.554,-215.697C189.31,-207.474 196.303,-197.483 202.647,-188.421"/>
<polygon fill="black" stroke="black" points="205.601,-190.304 208.468,-180.104 199.866,-186.29 205.601,-190.304"/>
</g>
<!-- t2 -->
<g id="node8" class="node"><title>t2</title>
<path fill="chartreuse" stroke="black" d="M163.441,-108C163.441,-108 133.441,-108 133.441,-108 127.441,-108 121.441,-102 121.441,-96 121.441,-96 121.441,-84 121.441,-84 121.441,-78 127.441,-72 133.441,-72 133.441,-72 163.441,-72 163.441,-72 169.441,-72 175.441,-78 175.441,-84 175.441,-84 175.441,-96 175.441,-96 175.441,-102 169.441,-108 163.441,-108"/>
<text text-anchor="middle" x="148.441" y="-85.8" font-family="Times,serif" font-size="14.00">t2</text>
</g>
<!-- c2&#45;&gt;t2 -->
<g id="edge15" class="edge"><title>c2&#45;&gt;t2</title>
<path fill="none" stroke="black" d="M168.667,-215.871C164.747,-191.67 157.546,-147.211 152.878,-118.393"/>
<polygon fill="black" stroke="black" points="156.28,-117.501 151.226,-108.189 149.37,-118.62 156.28,-117.501"/>
</g>
<!-- c3&#45;&gt;c1 -->
<g id="edge16" class="edge"><title>c3&#45;&gt;c1</title>
<path fill="none" stroke="black" d="M248.295,-215.697C244.039,-207.644 238.886,-197.894 234.175,-188.982"/>
<polygon fill="black" stroke="black" points="237.25,-187.31 229.482,-180.104 231.061,-190.581 237.25,-187.31"/>
</g>
<!-- t3 -->
<g id="node9" class="node"><title>t3</title>
<path fill="chartreuse" stroke="black" d="M307.441,-108C307.441,-108 277.441,-108 277.441,-108 271.441,-108 265.441,-102 265.441,-96 265.441,-96 265.441,-84 265.441,-84 265.441,-78 271.441,-72 277.441,-72 277.441,-72 307.441,-72 307.441,-72 313.441,-72 319.441,-78 319.441,-84 319.441,-84 319.441,-96 319.441,-96 319.441,-102 313.441,-108 307.441,-108"/>
<text text-anchor="middle" x="292.441" y="-85.8" font-family="Times,serif" font-size="14.00">t3</text>
</g>
<!-- c3&#45;&gt;t3 -->
<g id="edge17" class="edge"><title>c3&#45;&gt;t3</title>
<path fill="none" stroke="black" d="M261.663,-215.871C267.655,-191.564 278.683,-146.819 285.783,-118.013"/>
<polygon fill="black" stroke="black" points="289.21,-118.736 288.205,-108.189 282.413,-117.061 289.21,-118.736"/>
</g>
<!-- b1 -->
<g id="node10" class="node"><title>b1</title>
<path fill="cyan" stroke="black" d="M163.441,-36C163.441,-36 133.441,-36 133.441,-36 127.441,-36 121.441,-30 121.441,-24 121.441,-24 121.441,-12 121.441,-12 121.441,-6 127.441,-0 133.441,-0 133.441,-0 163.441,-0 163.441,-0 169.441,-0 175.441,-6 175.441,-12 175.441,-12 175.441,-24 175.441,-24 175.441,-30 169.441,-36 163.441,-36"/>
<text text-anchor="middle" x="148.441" y="-13.8" font-family="Times,serif" font-size="14.00">b1</text>
</g>
<!-- t1&#45;&gt;b1 -->
<g id="edge5" class="edge"><title>t1&#45;&gt;b1</title>
<path fill="none" stroke="black" d="M202.644,-71.6966C193.837,-63.135 183.059,-52.6562 173.44,-43.3045"/>
<polygon fill="black" stroke="black" points="175.644,-40.5657 166.034,-36.1043 170.765,-45.5846 175.644,-40.5657"/>
</g>
<!-- b2 -->
<g id="node11" class="node"><title>b2</title>
<path fill="cyan" stroke="black" d="M235.441,-36C235.441,-36 205.441,-36 205.441,-36 199.441,-36 193.441,-30 193.441,-24 193.441,-24 193.441,-12 193.441,-12 193.441,-6 199.441,-0 205.441,-0 205.441,-0 235.441,-0 235.441,-0 241.441,-0 247.441,-6 247.441,-12 247.441,-12 247.441,-24 247.441,-24 247.441,-30 241.441,-36 235.441,-36"/>
<text text-anchor="middle" x="220.441" y="-13.8" font-family="Times,serif" font-size="14.00">b2</text>
</g>
<!-- t1&#45;&gt;b2 -->
<g id="edge6" class="edge"><title>t1&#45;&gt;b2</title>
<path fill="none" stroke="black" d="M220.441,-71.6966C220.441,-63.9827 220.441,-54.7125 220.441,-46.1124"/>
<polygon fill="black" stroke="black" points="223.942,-46.1043 220.441,-36.1043 216.942,-46.1044 223.942,-46.1043"/>
</g>
<!-- b3 -->
<g id="node12" class="node"><title>b3</title>
<path fill="cyan" stroke="black" d="M307.441,-36C307.441,-36 277.441,-36 277.441,-36 271.441,-36 265.441,-30 265.441,-24 265.441,-24 265.441,-12 265.441,-12 265.441,-6 271.441,-0 277.441,-0 277.441,-0 307.441,-0 307.441,-0 313.441,-0 319.441,-6 319.441,-12 319.441,-12 319.441,-24 319.441,-24 319.441,-30 313.441,-36 307.441,-36"/>
<text text-anchor="middle" x="292.441" y="-13.8" font-family="Times,serif" font-size="14.00">b3</text>
</g>
<!-- t1&#45;&gt;b3 -->
<g id="edge7" class="edge"><title>t1&#45;&gt;b3</title>
<path fill="none" stroke="black" d="M238.239,-71.6966C247.045,-63.135 257.824,-52.6562 267.443,-43.3045"/>
<polygon fill="black" stroke="black" points="270.118,-45.5846 274.848,-36.1043 265.239,-40.5657 270.118,-45.5846"/>
</g>
<!-- t2&#45;&gt;b1 -->
<g id="edge8" class="edge"><title>t2&#45;&gt;b1</title>
<path fill="none" stroke="black" d="M148.441,-71.6966C148.441,-63.9827 148.441,-54.7125 148.441,-46.1124"/>
<polygon fill="black" stroke="black" points="151.942,-46.1043 148.441,-36.1043 144.942,-46.1044 151.942,-46.1043"/>
</g>
<!-- t2&#45;&gt;b2 -->
<g id="edge9" class="edge"><title>t2&#45;&gt;b2</title>
<path fill="none" stroke="black" d="M166.239,-71.6966C175.045,-63.135 185.824,-52.6562 195.443,-43.3045"/>
<polygon fill="black" stroke="black" points="198.118,-45.5846 202.848,-36.1043 193.239,-40.5657 198.118,-45.5846"/>
</g>
<!-- b4 -->
<g id="node13" class="node"><title>b4</title>
<path fill="cyan" stroke="black" d="M91.4414,-36C91.4414,-36 61.4414,-36 61.4414,-36 55.4414,-36 49.4414,-30 49.4414,-24 49.4414,-24 49.4414,-12 49.4414,-12 49.4414,-6 55.4414,-0 61.4414,-0 61.4414,-0 91.4414,-0 91.4414,-0 97.4414,-0 103.441,-6 103.441,-12 103.441,-12 103.441,-24 103.441,-24 103.441,-30 97.4414,-36 91.4414,-36"/>
<text text-anchor="middle" x="76.4414" y="-13.8" font-family="Times,serif" font-size="14.00">b4</text>
</g>
<!-- t2&#45;&gt;b4 -->
<g id="edge10" class="edge"><title>t2&#45;&gt;b4</title>
<path fill="none" stroke="black" d="M130.644,-71.6966C121.837,-63.135 111.059,-52.6562 101.44,-43.3045"/>
<polygon fill="black" stroke="black" points="103.644,-40.5657 94.0344,-36.1043 98.7646,-45.5846 103.644,-40.5657"/>
</g>
<!-- t3&#45;&gt;b2 -->
<g id="edge11" class="edge"><title>t3&#45;&gt;b2</title>
<path fill="none" stroke="black" d="M274.644,-71.6966C265.837,-63.135 255.059,-52.6562 245.44,-43.3045"/>
<polygon fill="black" stroke="black" points="247.644,-40.5657 238.034,-36.1043 242.765,-45.5846 247.644,-40.5657"/>
</g>
<!-- t3&#45;&gt;b3 -->
<g id="edge12" class="edge"><title>t3&#45;&gt;b3</title>
<path fill="none" stroke="black" d="M292.441,-71.6966C292.441,-63.9827 292.441,-54.7125 292.441,-46.1124"/>
<polygon fill="black" stroke="black" points="295.942,-46.1043 292.441,-36.1043 288.942,-46.1044 295.942,-46.1043"/>
</g>
<!-- b5 -->
<g id="node14" class="node"><title>b5</title>
<path fill="cyan" stroke="black" d="M379.441,-36C379.441,-36 349.441,-36 349.441,-36 343.441,-36 337.441,-30 337.441,-24 337.441,-24 337.441,-12 337.441,-12 337.441,-6 343.441,-0 349.441,-0 349.441,-0 379.441,-0 379.441,-0 385.441,-0 391.441,-6 391.441,-12 391.441,-12 391.441,-24 391.441,-24 391.441,-30 385.441,-36 379.441,-36"/>
<text text-anchor="middle" x="364.441" y="-13.8" font-family="Times,serif" font-size="14.00">b5</text>
</g>
<!-- t3&#45;&gt;b5 -->
<g id="edge13" class="edge"><title>t3&#45;&gt;b5</title>
<path fill="none" stroke="black" d="M310.239,-71.6966C319.045,-63.135 329.824,-52.6562 339.443,-43.3045"/>
<polygon fill="black" stroke="black" points="342.118,-45.5846 346.848,-36.1043 337.239,-40.5657 342.118,-45.5846"/>
</g>
</g>
</svg>
