<?xml version="1.0" encoding="UTF-8" standalone="no"?>
<!DOCTYPE svg PUBLIC "-//W3C//DTD SVG 1.1//EN"
 "http://www.w3.org/Graphics/SVG/1.1/DTD/svg11.dtd">
<!-- Generated by graphviz version 2.40.1 (20161225.0304)
 -->
<!-- Title: merge_start_dag Pages: 1 -->
<svg width="399pt" height="260pt"
 viewBox="0.00 0.00 399.44 260.00" xmlns="http://www.w3.org/2000/svg" xmlns:xlink="http://www.w3.org/1999/xlink">
<g id="graph0" class="graph" transform="scale(1 1) rotate(0) translate(4 256)">
<title>merge_start_dag</title>
<!-- HEAD -->
<g id="node1" class="node">
<title>HEAD</title>
<path fill="#ffffff" stroke="#000000" d="M42.8243,-252C42.8243,-252 12.0585,-252 12.0585,-252 6.0585,-252 .0585,-246 .0585,-240 .0585,-240 .0585,-228 .0585,-228 .0585,-222 6.0585,-216 12.0585,-216 12.0585,-216 42.8243,-216 42.8243,-216 48.8243,-216 54.8243,-222 54.8243,-228 54.8243,-228 54.8243,-240 54.8243,-240 54.8243,-246 48.8243,-252 42.8243,-252"/>
<text text-anchor="middle" x="27.4414" y="-229.8" font-family="Times,serif" font-size="14.00" fill="#000000">HEAD</text>
</g>
<!-- BR1 -->
<g id="node2" class="node">
<title>BR1</title>
<path fill="#ffffff" stroke="#000000" d="M114.4414,-252C114.4414,-252 84.4414,-252 84.4414,-252 78.4414,-252 72.4414,-246 72.4414,-240 72.4414,-240 72.4414,-228 72.4414,-228 72.4414,-222 78.4414,-216 84.4414,-216 84.4414,-216 114.4414,-216 114.4414,-216 120.4414,-216 126.4414,-222 126.4414,-228 126.4414,-228 126.4414,-240 126.4414,-240 126.4414,-246 120.4414,-252 114.4414,-252"/>
<text text-anchor="middle" x="99.4414" y="-229.8" font-family="Times,serif" font-size="14.00" fill="#000000">BR1</text>
</g>
<!-- HEAD&#45;&gt;BR1 -->
<g id="edge1" class="edge">
<title>HEAD&#45;&gt;BR1</title>
<path fill="none" stroke="#000000" d="M55.0039,-234C57.4449,-234 59.886,-234 62.327,-234"/>
<polygon fill="#000000" stroke="#000000" points="62.3623,-237.5001 72.3623,-234 62.3623,-230.5001 62.3623,-237.5001"/>
</g>
<!-- c2 -->
<g id="node5" class="node">
<title>c2</title>
<path fill="#ffff00" stroke="#000000" d="M186.4414,-252C186.4414,-252 156.4414,-252 156.4414,-252 150.4414,-252 144.4414,-246 144.4414,-240 144.4414,-240 144.4414,-228 144.4414,-228 144.4414,-222 150.4414,-216 156.4414,-216 156.4414,-216 186.4414,-216 186.4414,-216 192.4414,-216 198.4414,-222 198.4414,-228 198.4414,-228 198.4414,-240 198.4414,-240 198.4414,-246 192.4414,-252 186.4414,-252"/>
<text text-anchor="middle" x="171.4414" y="-229.8" font-family="Times,serif" font-size="14.00" fill="#000000">c2</text>
</g>
<!-- BR1&#45;&gt;c2 -->
<g id="edge2" class="edge">
<title>BR1&#45;&gt;c2</title>
<path fill="none" stroke="#000000" d="M126.7227,-234C129.1791,-234 131.6356,-234 134.0921,-234"/>
<polygon fill="#000000" stroke="#000000" points="134.191,-237.5001 144.1909,-234 134.1909,-230.5001 134.191,-237.5001"/>
</g>
<!-- BR2 -->
<g id="node3" class="node">
<title>BR2</title>
<path fill="#ffffff" stroke="#000000" d="M343.4414,-252C343.4414,-252 313.4414,-252 313.4414,-252 307.4414,-252 301.4414,-246 301.4414,-240 301.4414,-240 301.4414,-228 301.4414,-228 301.4414,-222 307.4414,-216 313.4414,-216 313.4414,-216 343.4414,-216 343.4414,-216 349.4414,-216 355.4414,-222 355.4414,-228 355.4414,-228 355.4414,-240 355.4414,-240 355.4414,-246 349.4414,-252 343.4414,-252"/>
<text text-anchor="middle" x="328.4414" y="-229.8" font-family="Times,serif" font-size="14.00" fill="#000000">BR2</text>
</g>
<!-- c3 -->
<g id="node6" class="node">
<title>c3</title>
<path fill="#ffff00" stroke="#000000" d="M271.4414,-252C271.4414,-252 241.4414,-252 241.4414,-252 235.4414,-252 229.4414,-246 229.4414,-240 229.4414,-240 229.4414,-228 229.4414,-228 229.4414,-222 235.4414,-216 241.4414,-216 241.4414,-216 271.4414,-216 271.4414,-216 277.4414,-216 283.4414,-222 283.4414,-228 283.4414,-228 283.4414,-240 283.4414,-240 283.4414,-246 277.4414,-252 271.4414,-252"/>
<text text-anchor="middle" x="256.4414" y="-229.8" font-family="Times,serif" font-size="14.00" fill="#000000">c3</text>
</g>
<!-- BR2&#45;&gt;c3 -->
<g id="edge3" class="edge">
<title>BR2&#45;&gt;c3</title>
<path fill="none" stroke="#000000" d="M301.1909,-234C298.7344,-234 296.278,-234 293.8215,-234"/>
<polygon fill="#000000" stroke="#000000" points="293.7227,-230.5001 283.7227,-234 293.7226,-237.5001 293.7227,-230.5001"/>
</g>
<!-- c1 -->
<g id="node4" class="node">
<title>c1</title>
<path fill="#ffff00" stroke="#000000" d="M235.4414,-180C235.4414,-180 205.4414,-180 205.4414,-180 199.4414,-180 193.4414,-174 193.4414,-168 193.4414,-168 193.4414,-156 193.4414,-156 193.4414,-150 199.4414,-144 205.4414,-144 205.4414,-144 235.4414,-144 235.4414,-144 241.4414,-144 247.4414,-150 247.4414,-156 247.4414,-156 247.4414,-168 247.4414,-168 247.4414,-174 241.4414,-180 235.4414,-180"/>
<text text-anchor="middle" x="220.4414" y="-157.8" font-family="Times,serif" font-size="14.00" fill="#000000">c1</text>
</g>
<!-- t1 -->
<g id="node7" class="node">
<title>t1</title>
<path fill="#7fff00" stroke="#000000" d="M235.4414,-108C235.4414,-108 205.4414,-108 205.4414,-108 199.4414,-108 193.4414,-102 193.4414,-96 193.4414,-96 193.4414,-84 193.4414,-84 193.4414,-78 199.4414,-72 205.4414,-72 205.4414,-72 235.4414,-72 235.4414,-72 241.4414,-72 247.4414,-78 247.4414,-84 247.4414,-84 247.4414,-96 247.4414,-96 247.4414,-102 241.4414,-108 235.4414,-108"/>
<text text-anchor="middle" x="220.4414" y="-85.8" font-family="Times,serif" font-size="14.00" fill="#000000">t1</text>
</g>
<!-- c1&#45;&gt;t1 -->
<g id="edge4" class="edge">
<title>c1&#45;&gt;t1</title>
<path fill="none" stroke="#000000" d="M220.4414,-143.8314C220.4414,-136.131 220.4414,-126.9743 220.4414,-118.4166"/>
<polygon fill="#000000" stroke="#000000" points="223.9415,-118.4132 220.4414,-108.4133 216.9415,-118.4133 223.9415,-118.4132"/>
</g>
<!-- c2&#45;&gt;c1 -->
<g id="edge14" class="edge">
<title>c2&#45;&gt;c1</title>
<path fill="none" stroke="#000000" d="M183.8062,-215.8314C189.3923,-207.6232 196.1044,-197.7606 202.2486,-188.7323"/>
<polygon fill="#000000" stroke="#000000" points="205.1774,-190.6496 207.9102,-180.4133 199.3904,-186.7112 205.1774,-190.6496"/>
</g>
<!-- t2 -->
<g id="node8" class="node">
<title>t2</title>
<path fill="#7fff00" stroke="#000000" d="M163.4414,-108C163.4414,-108 133.4414,-108 133.4414,-108 127.4414,-108 121.4414,-102 121.4414,-96 121.4414,-96 121.4414,-84 121.4414,-84 121.4414,-78 127.4414,-72 133.4414,-72 133.4414,-72 163.4414,-72 163.4414,-72 169.4414,-72 175.4414,-78 175.4414,-84 175.4414,-84 175.4414,-96 175.4414,-96 175.4414,-102 169.4414,-108 163.4414,-108"/>
<text text-anchor="middle" x="148.4414" y="-85.8" font-family="Times,serif" font-size="14.00" fill="#000000">t2</text>
</g>
<!-- c2&#45;&gt;t2 -->
<g id="edge15" class="edge">
<title>c2&#45;&gt;t2</title>
<path fill="none" stroke="#000000" d="M168.5284,-215.7623C164.5882,-191.0928 157.5232,-146.8598 152.9093,-117.9731"/>
<polygon fill="#000000" stroke="#000000" points="156.3642,-117.4124 151.3307,-108.0896 149.4518,-118.5165 156.3642,-117.4124"/>
</g>
<!-- c3&#45;&gt;c1 -->
<g id="edge16" class="edge">
<title>c3&#45;&gt;c1</title>
<path fill="none" stroke="#000000" d="M247.3571,-215.8314C243.38,-207.8771 238.6259,-198.369 234.2276,-189.5723"/>
<polygon fill="#000000" stroke="#000000" points="237.2507,-187.7923 229.648,-180.4133 230.9897,-190.9228 237.2507,-187.7923"/>
</g>
<!-- t3 -->
<g id="node9" class="node">
<title>t3</title>
<path fill="#7fff00" stroke="#000000" d="M307.4414,-108C307.4414,-108 277.4414,-108 277.4414,-108 271.4414,-108 265.4414,-102 265.4414,-96 265.4414,-96 265.4414,-84 265.4414,-84 265.4414,-78 271.4414,-72 277.4414,-72 277.4414,-72 307.4414,-72 307.4414,-72 313.4414,-72 319.4414,-78 319.4414,-84 319.4414,-84 319.4414,-96 319.4414,-96 319.4414,-102 313.4414,-108 307.4414,-108"/>
<text text-anchor="middle" x="292.4414" y="-85.8" font-family="Times,serif" font-size="14.00" fill="#000000">t3</text>
</g>
<!-- c3&#45;&gt;t3 -->
<g id="edge17" class="edge">
<title>c3&#45;&gt;t3</title>
<path fill="none" stroke="#000000" d="M261.0008,-215.7623C267.1682,-191.0928 278.2265,-146.8598 285.4481,-117.9731"/>
<polygon fill="#000000" stroke="#000000" points="288.8891,-118.6399 287.919,-108.0896 282.0981,-116.9421 288.8891,-118.6399"/>
</g>
<!-- b1 -->
<g id="node10" class="node">
<title>b1</title>
<path fill="#00ffff" stroke="#000000" d="M163.4414,-36C163.4414,-36 133.4414,-36 133.4414,-36 127.4414,-36 121.4414,-30 121.4414,-24 121.4414,-24 121.4414,-12 121.4414,-12 121.4414,-6 127.4414,0 133.4414,0 133.4414,0 163.4414,0 163.4414,0 169.4414,0 175.4414,-6 175.4414,-12 175.4414,-12 175.4414,-24 175.4414,-24 175.4414,-30 169.4414,-36 163.4414,-36"/>
<text text-anchor="middle" x="148.4414" y="-13.8" font-family="Times,serif" font-size="14.00" fill="#000000">b1</text>
</g>
<!-- t1&#45;&gt;b1 -->
<g id="edge5" class="edge">
<title>t1&#45;&gt;b1</title>
<path fill="none" stroke="#000000" d="M202.2728,-71.8314C193.7262,-63.2848 183.3857,-52.9443 174.0612,-43.6198"/>
<polygon fill="#000000" stroke="#000000" points="176.4007,-41.0095 166.8547,-36.4133 171.4509,-45.9592 176.4007,-41.0095"/>
</g>
<!-- b2 -->
<g id="node11" class="node">
<title>b2</title>
<path fill="#00ffff" stroke="#000000" d="M235.4414,-36C235.4414,-36 205.4414,-36 205.4414,-36 199.4414,-36 193.4414,-30 193.4414,-24 193.4414,-24 193.4414,-12 193.4414,-12 193.4414,-6 199.4414,0 205.4414,0 205.4414,0 235.4414,0 235.4414,0 241.4414,0 247.4414,-6 247.4414,-12 247.4414,-12 247.4414,-24 247.4414,-24 247.4414,-30 241.4414,-36 235.4414,-36"/>
<text text-anchor="middle" x="220.4414" y="-13.8" font-family="Times,serif" font-size="14.00" fill="#000000">b2</text>
</g>
<!-- t1&#45;&gt;b2 -->
<g id="edge6" class="edge">
<title>t1&#45;&gt;b2</title>
<path fill="none" stroke="#000000" d="M220.4414,-71.8314C220.4414,-64.131 220.4414,-54.9743 220.4414,-46.4166"/>
<polygon fill="#000000" stroke="#000000" points="223.9415,-46.4132 220.4414,-36.4133 216.9415,-46.4133 223.9415,-46.4132"/>
</g>
<!-- b3 -->
<g id="node12" class="node">
<title>b3</title>
<path fill="#00ffff" stroke="#000000" d="M307.4414,-36C307.4414,-36 277.4414,-36 277.4414,-36 271.4414,-36 265.4414,-30 265.4414,-24 265.4414,-24 265.4414,-12 265.4414,-12 265.4414,-6 271.4414,0 277.4414,0 277.4414,0 307.4414,0 307.4414,0 313.4414,0 319.4414,-6 319.4414,-12 319.4414,-12 319.4414,-24 319.4414,-24 319.4414,-30 313.4414,-36 307.4414,-36"/>
<text text-anchor="middle" x="292.4414" y="-13.8" font-family="Times,serif" font-size="14.00" fill="#000000">b3</text>
</g>
<!-- t1&#45;&gt;b3 -->
<g id="edge7" class="edge">
<title>t1&#45;&gt;b3</title>
<path fill="none" stroke="#000000" d="M238.61,-71.8314C247.1567,-63.2848 257.4971,-52.9443 266.8216,-43.6198"/>
<polygon fill="#000000" stroke="#000000" points="269.4319,-45.9592 274.0281,-36.4133 264.4822,-41.0095 269.4319,-45.9592"/>
</g>
<!-- t2&#45;&gt;b1 -->
<g id="edge8" class="edge">
<title>t2&#45;&gt;b1</title>
<path fill="none" stroke="#000000" d="M148.4414,-71.8314C148.4414,-64.131 148.4414,-54.9743 148.4414,-46.4166"/>
<polygon fill="#000000" stroke="#000000" points="151.9415,-46.4132 148.4414,-36.4133 144.9415,-46.4133 151.9415,-46.4132"/>
</g>
<!-- t2&#45;&gt;b2 -->
<g id="edge9" class="edge">
<title>t2&#45;&gt;b2</title>
<path fill="none" stroke="#000000" d="M166.61,-71.8314C175.1567,-63.2848 185.4971,-52.9443 194.8216,-43.6198"/>
<polygon fill="#000000" stroke="#000000" points="197.4319,-45.9592 202.0281,-36.4133 192.4822,-41.0095 197.4319,-45.9592"/>
</g>
<!-- b4 -->
<g id="node13" class="node">
<title>b4</title>
<path fill="#00ffff" stroke="#000000" d="M91.4414,-36C91.4414,-36 61.4414,-36 61.4414,-36 55.4414,-36 49.4414,-30 49.4414,-24 49.4414,-24 49.4414,-12 49.4414,-12 49.4414,-6 55.4414,0 61.4414,0 61.4414,0 91.4414,0 91.4414,0 97.4414,0 103.4414,-6 103.4414,-12 103.4414,-12 103.4414,-24 103.4414,-24 103.4414,-30 97.4414,-36 91.4414,-36"/>
<text text-anchor="middle" x="76.4414" y="-13.8" font-family="Times,serif" font-size="14.00" fill="#000000">b4</text>
</g>
<!-- t2&#45;&gt;b4 -->
<g id="edge10" class="edge">
<title>t2&#45;&gt;b4</title>
<path fill="none" stroke="#000000" d="M130.2728,-71.8314C121.7262,-63.2848 111.3857,-52.9443 102.0612,-43.6198"/>
<polygon fill="#000000" stroke="#000000" points="104.4007,-41.0095 94.8547,-36.4133 99.4509,-45.9592 104.4007,-41.0095"/>
</g>
<!-- t3&#45;&gt;b2 -->
<g id="edge11" class="edge">
<title>t3&#45;&gt;b2</title>
<path fill="none" stroke="#000000" d="M274.2728,-71.8314C265.7262,-63.2848 255.3857,-52.9443 246.0612,-43.6198"/>
<polygon fill="#000000" stroke="#000000" points="248.4007,-41.0095 238.8547,-36.4133 243.4509,-45.9592 248.4007,-41.0095"/>
</g>
<!-- t3&#45;&gt;b3 -->
<g id="edge12" class="edge">
<title>t3&#45;&gt;b3</title>
<path fill="none" stroke="#000000" d="M292.4414,-71.8314C292.4414,-64.131 292.4414,-54.9743 292.4414,-46.4166"/>
<polygon fill="#000000" stroke="#000000" points="295.9415,-46.4132 292.4414,-36.4133 288.9415,-46.4133 295.9415,-46.4132"/>
</g>
<!-- b5 -->
<g id="node14" class="node">
<title>b5</title>
<path fill="#00ffff" stroke="#000000" d="M379.4414,-36C379.4414,-36 349.4414,-36 349.4414,-36 343.4414,-36 337.4414,-30 337.4414,-24 337.4414,-24 337.4414,-12 337.4414,-12 337.4414,-6 343.4414,0 349.4414,0 349.4414,0 379.4414,0 379.4414,0 385.4414,0 391.4414,-6 391.4414,-12 391.4414,-12 391.4414,-24 391.4414,-24 391.4414,-30 385.4414,-36 379.4414,-36"/>
<text text-anchor="middle" x="364.4414" y="-13.8" font-family="Times,serif" font-size="14.00" fill="#000000">b5</text>
</g>
<!-- t3&#45;&gt;b5 -->
<g id="edge13" class="edge">
<title>t3&#45;&gt;b5</title>
<path fill="none" stroke="#000000" d="M310.61,-71.8314C319.1567,-63.2848 329.4971,-52.9443 338.8216,-43.6198"/>
<polygon fill="#000000" stroke="#000000" points="341.4319,-45.9592 346.0281,-36.4133 336.4822,-41.0095 341.4319,-45.9592"/>
</g>
</g>
</svg>
