<?xml version="1.0" encoding="UTF-8" standalone="no"?>
<!DOCTYPE svg PUBLIC "-//W3C//DTD SVG 1.1//EN"
 "http://www.w3.org/Graphics/SVG/1.1/DTD/svg11.dtd">
<!-- Generated by graphviz version 2.38.0 (20140413.2041)
 -->
<!-- Title: rebasebranches2 Pages: 1 -->
<svg width="299pt" height="353pt"
 viewBox="0.00 0.00 299.24 352.80" xmlns="http://www.w3.org/2000/svg" xmlns:xlink="http://www.w3.org/1999/xlink">
<g id="graph0" class="graph" transform="scale(1 1) rotate(0) translate(14.4 338.4)">
<title>rebasebranches2</title>
<!-- b1 -->
<g id="node1" class="node"><title>b1</title>
<path fill="white" stroke="black" d="M42,-180C42,-180 12,-180 12,-180 6,-180 0,-174 0,-168 0,-168 0,-156 0,-156 0,-150 6,-144 12,-144 12,-144 42,-144 42,-144 48,-144 54,-150 54,-156 54,-156 54,-168 54,-168 54,-174 48,-180 42,-180"/>
<text text-anchor="middle" x="27" y="-157.8" font-family="Times,serif" font-size="14.00">b1</text>
</g>
<!-- E -->
<g id="node4" class="node"><title>E</title>
<path fill="yellow" stroke="black" d="M114,-180C114,-180 84,-180 84,-180 78,-180 72,-174 72,-168 72,-168 72,-156 72,-156 72,-150 78,-144 84,-144 84,-144 114,-144 114,-144 120,-144 126,-150 126,-156 126,-156 126,-168 126,-168 126,-174 120,-180 114,-180"/>
<text text-anchor="middle" x="99" y="-157.8" font-family="Times,serif" font-size="14.00">E</text>
</g>
<!-- b1&#45;&gt;E -->
<g id="edge9" class="edge"><title>b1&#45;&gt;E</title>
<path fill="none" stroke="black" d="M54.2812,-162C56.7377,-162 59.1942,-162 61.6507,-162"/>
<polygon fill="black" stroke="black" points="61.7495,-165.5 71.7495,-162 61.7495,-158.5 61.7495,-165.5"/>
</g>
<!-- HEAD -->
<g id="node2" class="node"><title>HEAD</title>
<path fill="white" stroke="black" d="M258.383,-324C258.383,-324 227.617,-324 227.617,-324 221.617,-324 215.617,-318 215.617,-312 215.617,-312 215.617,-300 215.617,-300 215.617,-294 221.617,-288 227.617,-288 227.617,-288 258.383,-288 258.383,-288 264.383,-288 270.383,-294 270.383,-300 270.383,-300 270.383,-312 270.383,-312 270.383,-318 264.383,-324 258.383,-324"/>
<text text-anchor="middle" x="243" y="-301.8" font-family="Times,serif" font-size="14.00">HEAD</text>
</g>
<!-- b2 -->
<g id="node3" class="node"><title>b2</title>
<path fill="white" stroke="black" d="M186,-324C186,-324 156,-324 156,-324 150,-324 144,-318 144,-312 144,-312 144,-300 144,-300 144,-294 150,-288 156,-288 156,-288 186,-288 186,-288 192,-288 198,-294 198,-300 198,-300 198,-312 198,-312 198,-318 192,-324 186,-324"/>
<text text-anchor="middle" x="171" y="-301.8" font-family="Times,serif" font-size="14.00">b2</text>
</g>
<!-- HEAD&#45;&gt;b2 -->
<g id="edge1" class="edge"><title>HEAD&#45;&gt;b2</title>
<path fill="none" stroke="black" d="M215.4,-306C213.082,-306 210.764,-306 208.446,-306"/>
<polygon fill="black" stroke="black" points="208.281,-302.5 198.281,-306 208.281,-309.5 208.281,-302.5"/>
</g>
<!-- C&#39; -->
<g id="node7" class="node"><title>C&#39;</title>
<path fill="yellow" stroke="black" d="M114,-324C114,-324 84,-324 84,-324 78,-324 72,-318 72,-312 72,-312 72,-300 72,-300 72,-294 78,-288 84,-288 84,-288 114,-288 114,-288 120,-288 126,-294 126,-300 126,-300 126,-312 126,-312 126,-318 120,-324 114,-324"/>
<text text-anchor="middle" x="99" y="-301.8" font-family="Times,serif" font-size="14.00">C&#39;</text>
</g>
<!-- b2&#45;&gt;C&#39; -->
<g id="edge8" class="edge"><title>b2&#45;&gt;C&#39;</title>
<path fill="none" stroke="red" d="M143.75,-306C141.293,-306 138.837,-306 136.38,-306"/>
<polygon fill="red" stroke="red" points="136.281,-302.5 126.281,-306 136.281,-309.5 136.281,-302.5"/>
</g>
<!-- D -->
<g id="node5" class="node"><title>D</title>
<path fill="yellow" stroke="black" d="M114,-108C114,-108 84,-108 84,-108 78,-108 72,-102 72,-96 72,-96 72,-84 72,-84 72,-78 78,-72 84,-72 84,-72 114,-72 114,-72 120,-72 126,-78 126,-84 126,-84 126,-96 126,-96 126,-102 120,-108 114,-108"/>
<text text-anchor="middle" x="99" y="-85.8" font-family="Times,serif" font-size="14.00">D</text>
</g>
<!-- E&#45;&gt;D -->
<g id="edge2" class="edge"><title>E&#45;&gt;D</title>
<path fill="none" stroke="black" d="M99,-143.697C99,-135.983 99,-126.712 99,-118.112"/>
<polygon fill="black" stroke="black" points="102.5,-118.104 99,-108.104 95.5001,-118.104 102.5,-118.104"/>
</g>
<!-- A -->
<g id="node6" class="node"><title>A</title>
<path fill="yellow" stroke="black" d="M150,-36C150,-36 120,-36 120,-36 114,-36 108,-30 108,-24 108,-24 108,-12 108,-12 108,-6 114,-0 120,-0 120,-0 150,-0 150,-0 156,-0 162,-6 162,-12 162,-12 162,-24 162,-24 162,-30 156,-36 150,-36"/>
<text text-anchor="middle" x="135" y="-13.8" font-family="Times,serif" font-size="14.00">A</text>
</g>
<!-- D&#45;&gt;A -->
<g id="edge3" class="edge"><title>D&#45;&gt;A</title>
<path fill="none" stroke="black" d="M107.899,-71.6966C111.997,-63.7284 116.949,-54.0995 121.493,-45.2641"/>
<polygon fill="black" stroke="black" points="124.742,-46.598 126.203,-36.1043 118.517,-43.3965 124.742,-46.598"/>
</g>
<!-- B&#39; -->
<g id="node8" class="node"><title>B&#39;</title>
<path fill="yellow" stroke="black" d="M114,-252C114,-252 84,-252 84,-252 78,-252 72,-246 72,-240 72,-240 72,-228 72,-228 72,-222 78,-216 84,-216 84,-216 114,-216 114,-216 120,-216 126,-222 126,-228 126,-228 126,-240 126,-240 126,-246 120,-252 114,-252"/>
<text text-anchor="middle" x="99" y="-229.8" font-family="Times,serif" font-size="14.00">B&#39;</text>
</g>
<!-- C&#39;&#45;&gt;B&#39; -->
<g id="edge4" class="edge"><title>C&#39;&#45;&gt;B&#39;</title>
<path fill="none" stroke="red" d="M99,-287.697C99,-279.983 99,-270.712 99,-262.112"/>
<polygon fill="red" stroke="red" points="102.5,-262.104 99,-252.104 95.5001,-262.104 102.5,-262.104"/>
</g>
<!-- B&#39;&#45;&gt;E -->
<g id="edge5" class="edge"><title>B&#39;&#45;&gt;E</title>
<path fill="none" stroke="red" d="M99,-215.697C99,-207.983 99,-198.712 99,-190.112"/>
<polygon fill="red" stroke="red" points="102.5,-190.104 99,-180.104 95.5001,-190.104 102.5,-190.104"/>
</g>
<!-- C -->
<g id="node9" class="node"><title>C</title>
<path fill="orange" stroke="black" d="M186,-180C186,-180 156,-180 156,-180 150,-180 144,-174 144,-168 144,-168 144,-156 144,-156 144,-150 150,-144 156,-144 156,-144 186,-144 186,-144 192,-144 198,-150 198,-156 198,-156 198,-168 198,-168 198,-174 192,-180 186,-180"/>
<text text-anchor="middle" x="171" y="-157.8" font-family="Times,serif" font-size="14.00">C</text>
</g>
<!-- B -->
<g id="node10" class="node"><title>B</title>
<path fill="orange" stroke="black" d="M186,-108C186,-108 156,-108 156,-108 150,-108 144,-102 144,-96 144,-96 144,-84 144,-84 144,-78 150,-72 156,-72 156,-72 186,-72 186,-72 192,-72 198,-78 198,-84 198,-84 198,-96 198,-96 198,-102 192,-108 186,-108"/>
<text text-anchor="middle" x="171" y="-85.8" font-family="Times,serif" font-size="14.00">B</text>
</g>
<!-- C&#45;&gt;B -->
<g id="edge6" class="edge"><title>C&#45;&gt;B</title>
<path fill="none" stroke="black" d="M171,-143.697C171,-135.983 171,-126.712 171,-118.112"/>
<polygon fill="black" stroke="black" points="174.5,-118.104 171,-108.104 167.5,-118.104 174.5,-118.104"/>
</g>
<!-- B&#45;&gt;A -->
<g id="edge7" class="edge"><title>B&#45;&gt;A</title>
<path fill="none" stroke="black" d="M162.101,-71.6966C158.003,-63.7284 153.051,-54.0995 148.507,-45.2641"/>
<polygon fill="black" stroke="black" points="151.483,-43.3965 143.797,-36.1043 145.258,-46.598 151.483,-43.3965"/>
</g>
</g>
</svg>
